<?xml version="1.0" encoding="utf-8"?>
<!-- Generator: Adobe Illustrator 24.1.2, SVG Export Plug-In . SVG Version: 6.00 Build 0)  -->
<svg version="1.1" id="Слой_1" xmlns="http://www.w3.org/2000/svg" xmlns:xlink="http://www.w3.org/1999/xlink" x="0px" y="0px"
	 viewBox="0 0 500 500" style="enable-background:new 0 0 500 500;" xml:space="preserve">
<style type="text/css">
	.st0{fill:#E4B564;stroke:#FFFFFF;stroke-miterlimit:10;}
	.st1{fill:#E4B564;}
	.st2{fill:#FFFFFF;}
	.st3{fill:#93BFE7;}
	.st4{fill:#7C6139;stroke:#FFFFFF;stroke-miterlimit:10;}
	.st5{fill:#F4CF98;}
</style>
<g>
	<g>
		<polygon class="st0" points="388.9,324.3 286.1,382.7 286.1,474.1 388.9,415.6 		"/>
		<polygon class="st1" points="147.3,303.9 286.1,382.7 286.1,474.1 147.3,395.2 		"/>
		<g>
			<g>
				<polygon class="st2" points="207.1,370.7 159.3,343.6 159.3,402.1 207.1,429.2 				"/>
			</g>
			<polygon class="st3" points="180,358.5 178.7,357.8 175.1,355.7 173,354.5 162.3,348.5 162.3,360.7 162.3,363.4 162.3,367 
				162.3,368.6 162.3,370.7 162.3,403.6 181.9,414.8 181.9,359.6 			"/>
			<polygon class="st3" points="202.3,371.3 200.9,370.5 197.3,368.5 195.3,367.3 184.5,361.2 184.5,373.4 184.5,376.1 184.5,379.8 
				184.5,381.4 184.5,383.5 184.5,416.4 204.2,427.5 204.2,372.4 			"/>
		</g>
		<g>
			<g>
				<polygon class="st2" points="264.2,403.1 216.4,376.1 216.4,434.5 264.2,461.7 				"/>
			</g>
			<polygon class="st3" points="237.1,391 235.7,390.2 232.2,388.2 230.1,387 219.3,380.9 219.3,393.1 219.3,395.8 219.3,399.5 
				219.3,401.1 219.3,403.2 219.3,436.1 239,447.2 239,392.1 			"/>
			<polygon class="st3" points="259.4,403.8 258,403 254.4,401 252.4,399.8 241.6,393.7 241.6,405.9 241.6,408.6 241.6,412.3 
				241.6,413.9 241.6,416 241.6,448.9 261.3,460 261.3,404.8 			"/>
		</g>
		<g>
			<polygon class="st1" points="235.3,399.6 235.3,489.3 245.3,495 245.3,405.4 			"/>
			<polygon class="st1" points="256.1,399.2 245.3,405.4 245.3,495 256.1,488.9 			"/>
		</g>
		<g>
			<polygon class="st1" points="107,326.4 107,416 117.1,421.7 117.1,332.1 			"/>
			<polygon class="st1" points="127.9,325.9 117.1,332.1 117.1,421.7 127.9,415.6 			"/>
		</g>
		<polygon class="st4" points="388.9,247.2 245.4,327 245.4,409.6 388.9,329.9 		"/>
		<polygon class="st4" points="107,246.7 107,330.8 245.4,409.6 245.4,327 		"/>
	</g>
	<g>
		<g>
			<polygon class="st1" points="388.9,91.1 247.9,171.2 247.9,386.3 388.9,306.2 			"/>
			<polygon class="st1" points="247.9,-2 107,78.7 247.9,158.8 388.9,78.7 			"/>
		</g>
		<g>
			<polygon class="st5" points="171.3,127.6 107,249.9 107,306.2 110.9,308.4 197.9,142.8 			"/>
			<polygon class="st5" points="203.2,145.8 116.2,311.4 125,316.5 212.1,150.8 			"/>
			<polygon class="st5" points="160.4,336.6 247.9,386.3 247.9,171.2 247.5,170.9 			"/>
			<polygon class="st1" points="212.1,150.8 125,316.5 160.4,336.6 247.5,170.9 			"/>
			<polygon class="st1" points="107,91.1 107,249.9 171.3,127.6 			"/>
			<polygon class="st1" points="197.9,142.8 110.9,308.4 116.2,311.4 203.2,145.8 			"/>
		</g>
		<g>
			<path class="st2" d="M136.1,105.5v217.3l1.5,0.9V106.4C137.1,106.1,136.6,105.8,136.1,105.5z"/>
			<path class="st2" d="M170.5,124.4v218l1.5,0.9V124.7C171.5,124.5,171,124.4,170.5,124.4z"/>
			<path class="st2" d="M207.8,146.4v217.1l1.5,0.9V147.2C208.8,146.9,208.3,146.7,207.8,146.4z"/>
		</g>
		<g>
			<path class="st2" d="M355,108.3v217.3l-1.5,0.9V109.3C354,108.9,354.5,108.6,355,108.3z"/>
			<path class="st2" d="M320.6,127.2v218l-1.5,0.9V127.6C319.6,127.4,320.1,127.3,320.6,127.2z"/>
			<path class="st2" d="M283.3,149.3v217.1l-1.5,0.9V150.1C282.3,149.8,282.8,149.5,283.3,149.3z"/>
		</g>
		<g>
			<polygon class="st2" points="388.9,78.7 248,158.8 248,171.4 388.9,92.1 			"/>
			<polygon class="st2" points="107,78.4 107,91.1 248,171.4 248,158.8 			"/>
		</g>
		<g>
			<polygon class="st2" points="388.9,143.2 248,223.3 248,227.3 388.9,148 			"/>
			<polygon class="st2" points="107,142.9 107,146.9 248,227.3 248,223.3 			"/>
		</g>
		<g>
			<polygon class="st2" points="388.9,199.2 248,279.3 248,283.3 388.9,204 			"/>
			<polygon class="st2" points="107,199 107,202.9 248,283.3 248,279.3 			"/>
		</g>
		<g>
			<polygon class="st2" points="388.9,253.5 248,333.7 248,337.6 388.9,258.3 			"/>
			<polygon class="st2" points="107,253.3 107,257.2 248,337.6 248,333.7 			"/>
		</g>
	</g>
</g>
</svg>
