<svg width="64" height="64" viewBox="0 0 64 64" fill="none" xmlns="http://www.w3.org/2000/svg">
<path d="M50.6667 16.9138C46.2667 11.4765 39.5395 8 32 8C18.7452 8 8 18.7452 8 32C8 36.9336 9.48872 41.5197 12.0415 45.3333M56 32C56 45.2549 45.2549 56 32 56C29.2293 56 26.5682 55.5304 24.0921 54.6667M32 42.6667H34.6667C36.4445 42.6667 40 41.6 40 37.3333C40 33.0667 36.4445 32 34.6667 32H29.3333C27.5555 32 24 30.9333 24 26.6667C24 22.4 27.5555 21.3333 29.3333 21.3333H32M32 42.6667H24M32 42.6667V48M32 21.3333H40M32 21.3333V16" stroke="#E4B564" stroke-width="4" stroke-linecap="round" stroke-linejoin="round"/>
</svg>
