<?xml version="1.0" encoding="utf-8"?>
<!-- Generator: Adobe Illustrator 24.1.2, SVG Export Plug-In . SVG Version: 6.00 Build 0)  -->
<svg version="1.1" id="Слой_1" xmlns="http://www.w3.org/2000/svg" xmlns:xlink="http://www.w3.org/1999/xlink" x="0px" y="0px"
	 viewBox="0 0 500 500" style="enable-background:new 0 0 500 500;" xml:space="preserve">
<style type="text/css">
	.st0{fill:#889BAA;}
	.st1{fill:#485B66;}
	.st2{fill:#E4B564;}
	.st3{fill:#E5DBCF;}
	.st4{fill:#D3C7BA;}
	.st5{fill:#5B6F7C;}
	.st6{fill:#BFB1A3;}
	.st7{fill:none;}
	.st8{fill:#FFFFFF;}
	.st9{fill:#C3C7D6;}
	.st10{fill:#C4B89C;}
	.st11{fill:#FCFCFC;}
	.st12{fill:#556877;}
	.st13{fill:#6B7B8A;}
</style>
<g>
	<g>
		<polygon class="st0" points="350.8,212.7 504,141.4 196,-2 42.8,69.3 		"/>
		<g>
			<polygon class="st1" points="482.6,145.2 490.9,141.4 196.1,4.1 56.4,69.3 64.7,73.2 196.1,11.9 			"/>
			<polygon class="st2" points="482.6,145.2 196.1,11.9 64.7,73.2 351.1,206.5 			"/>
		</g>
		<polygon class="st3" points="350.8,212.7 350.8,498 42.8,354.6 42.8,69.3 		"/>
		<polygon class="st2" points="60.3,94.8 60.3,172 331.4,298.2 331.4,221 		"/>
		<polygon class="st2" points="60.3,181.2 60.3,262.3 331.4,388.5 331.4,307.4 		"/>
		<polygon class="st2" points="132.2,315.9 55.7,280.3 55.7,347.7 132.2,383.2 		"/>
		<polygon class="st2" points="324.1,403.1 247.7,367.5 247.7,434.9 324.1,470.5 		"/>
		<polygon class="st4" points="504,141.4 504,426.7 350.8,498 350.8,212.7 		"/>
		<polygon class="st5" points="350.8,212.7 350.8,224 42.8,80.7 42.8,69.3 		"/>
		<polygon class="st1" points="504,141.4 504,152.7 350.8,224 350.8,212.7 		"/>
		<polygon class="st6" points="484.5,167.8 371.7,220.4 371.7,297.5 484.5,244.9 		"/>
		<polygon class="st2" points="488.3,170.7 375.4,223.2 375.4,300.4 488.3,247.8 		"/>
		<polygon class="st2" points="484.5,254.2 371.7,306.7 371.7,387.8 484.5,335.3 		"/>
		<polygon class="st2" points="484.5,344.3 371.7,396.8 371.7,477.9 484.5,425.4 		"/>
	</g>
	<g>
		<g>
			<polygon class="st7" points="216.4,372.5 152.1,342.7 152.1,405.5 216.4,435.3 			"/>
		</g>
		<polygon class="st8" points="178.7,358.7 176.9,357.8 172.2,355.6 169.5,354.4 155.4,347.8 155.4,360.9 155.4,363.8 155.4,367.8 
			155.4,369.5 155.4,371.8 155.4,407 181.1,419 181.1,359.8 		"/>
		<polygon class="st8" points="209.4,373 207.6,372.1 202.9,370 200.2,368.7 186.1,362.2 186.1,375.3 186.1,378.2 186.1,382.1 
			186.1,383.8 186.1,386.1 186.1,421.3 211.9,433.3 211.9,374.1 		"/>
	</g>
	<g>
		<polygon class="st5" points="159.2,148.5 126.8,133.4 126.8,186.7 159.2,201.8 		"/>
		<polygon class="st1" points="130.7,137.4 129,136.6 129,185.5 156.5,198.3 156.5,196.6 130.7,184.6 		"/>
		<polygon class="st8" points="144.8,143.9 147.5,145.2 152.2,147.4 154,148.2 156.5,149.4 156.5,196.8 130.7,184.8 130.7,161.3 
			130.7,159 130.7,157.3 130.7,153.4 130.7,150.5 130.7,137.4 		"/>
	</g>
	<g>
		<polygon class="st5" points="261.9,197.1 229.6,182 229.6,235.3 261.9,250.4 		"/>
		<polygon class="st1" points="233.5,186 231.8,185.2 231.8,234.1 259.2,246.9 259.2,245.2 233.5,233.2 		"/>
		<polygon class="st8" points="247.5,192.5 250.3,193.8 255,196 256.7,196.8 259.2,198 259.2,245.4 233.5,233.4 233.5,209.9 
			233.5,207.6 233.5,205.9 233.5,202 233.5,199.1 233.5,186 		"/>
	</g>
	<g>
		<polygon class="st5" points="159.2,233.9 126.8,218.8 126.8,272.1 159.2,287.1 		"/>
		<polygon class="st1" points="130.7,222.7 129,222 129,270.9 156.5,283.6 156.5,282 130.7,270 		"/>
		<polygon class="st8" points="144.8,229.3 147.5,230.5 152.2,232.7 154,233.6 156.5,234.7 156.5,282.1 130.7,270.2 130.7,246.7 
			130.7,244.4 130.7,242.7 130.7,238.7 130.7,235.8 130.7,222.7 		"/>
	</g>
	<g>
		<polygon class="st5" points="126.8,322.4 61.1,291.7 61.1,345 126.8,375.7 		"/>
		<polygon class="st1" points="65,295.6 63.3,294.9 63.3,343.8 124.4,372.4 124.4,369.9 65,342.9 		"/>
		<polygon class="st8" points="79.1,302.2 81.8,303.4 86.5,305.6 88.3,306.5 124.4,323.5 124.4,370.9 65,343.1 65,319.6 65,317.3 
			65,315.6 65,311.6 65,308.7 65,295.6 		"/>
	</g>
	<g>
		<polygon class="st5" points="318,409.4 252.3,378.6 252.3,431.9 318,462.6 		"/>
		<polygon class="st1" points="256.2,382.6 254.5,381.8 254.5,430.7 315.6,459.3 315.6,456.8 256.2,429.8 		"/>
		<polygon class="st8" points="270.3,389.1 273,390.4 277.7,392.6 279.5,393.4 315.6,410.4 315.6,457.8 256.2,430 256.2,406.5 
			256.2,404.2 256.2,402.5 256.2,398.6 256.2,395.7 256.2,382.6 		"/>
	</g>
	<g>
		<polygon class="st5" points="399.7,397.4 465.4,366.6 465.4,419.9 399.7,450.7 		"/>
		<polygon class="st1" points="461.5,370.6 463.2,369.8 463.2,418.7 402.1,447.3 402.1,444.9 461.5,417.9 		"/>
		<polygon class="st8" points="447.4,377.1 444.7,378.4 440,380.6 438.3,381.4 402.1,398.4 402.1,445.9 461.5,418 461.5,394.5 
			461.5,392.2 461.5,390.5 461.5,386.6 461.5,383.7 461.5,370.6 		"/>
	</g>
	<g>
		<polygon class="st5" points="399.7,308.5 465.4,277.7 465.4,331 399.7,361.7 		"/>
		<polygon class="st1" points="461.5,281.7 463.2,280.9 463.2,329.8 402.1,358.4 402.1,355.9 461.5,328.9 		"/>
		<polygon class="st8" points="447.4,288.2 444.7,289.5 440,291.7 438.3,292.5 402.1,309.5 402.1,356.9 461.5,329.1 461.5,305.6 
			461.5,303.3 461.5,301.6 461.5,297.7 461.5,294.8 461.5,281.7 		"/>
	</g>
	<g>
		<polygon class="st5" points="399.7,220 465.4,189.2 465.4,242.5 399.7,273.2 		"/>
		<polygon class="st1" points="461.5,193.2 463.2,192.4 463.2,241.3 402.1,269.9 402.1,267.4 461.5,240.4 		"/>
		<polygon class="st8" points="447.4,199.7 444.7,201 440,203.2 438.3,204 402.1,221 402.1,268.5 461.5,240.6 461.5,217.1 
			461.5,214.8 461.5,213.1 461.5,209.2 461.5,206.3 461.5,193.2 		"/>
	</g>
	<g>
		<polygon class="st5" points="261.9,282.5 229.6,267.4 229.6,320.7 261.9,335.7 		"/>
		<polygon class="st1" points="233.5,271.3 231.8,270.6 231.8,319.5 259.2,332.2 259.2,330.6 233.5,318.6 		"/>
		<polygon class="st8" points="247.5,277.9 250.3,279.1 255,281.3 256.7,282.2 259.2,283.3 259.2,330.7 233.5,318.8 233.5,295.3 
			233.5,293 233.5,291.3 233.5,287.3 233.5,284.4 233.5,271.3 		"/>
	</g>
	<g>
		<polygon class="st2" points="312,428.2 350.8,395.5 42.8,252.1 4,284.9 		"/>
		<polygon class="st5" points="312,428.2 312,433.4 4,290 4,284.9 		"/>
		<polygon class="st1" points="350.8,395.5 350.8,415.1 312,433.4 312,428.2 		"/>
	</g>
	<g>
		<g>
			<g>
				<polygon class="st5" points="175,151.9 175,214.7 207.8,230 207.8,167.1 				"/>
			</g>
			<polygon class="st8" points="201.5,167.8 199.7,167 195,164.8 192.3,163.5 178.2,157 178.2,170.1 178.2,173 178.2,177 
				178.2,178.6 178.2,180.9 178.2,216.2 204,228.2 204,169 			"/>
		</g>
		<g>
			<polygon class="st5" points="149.3,219.2 149.3,222.1 196.9,244.3 196.9,241.4 			"/>
			<polygon class="st1" points="215.6,232.9 196.9,241.4 196.9,244.3 215.6,235.9 			"/>
			<polygon class="st0" points="215.6,232.9 196.9,241.4 149.3,219.2 168,210.8 			"/>
			<g>
				<rect x="161.1" y="196.2" class="st8" width="3.4" height="20.1"/>
				<path class="st8" d="M161.1,216.3c0,0.4,0.8,0.7,1.7,0.7c0.9,0,1.7-0.3,1.7-0.7c0-0.4-0.7-0.8-1.7-0.8
					C161.8,215.5,161.1,215.9,161.1,216.3z"/>
				<path class="st9" d="M161,196.2c0,0.4,0.8,0.7,1.7,0.7c0.9,0,1.7-0.3,1.7-0.7s-0.8-0.7-1.7-0.7C161.8,195.5,161,195.8,161,196.2
					z"/>
			</g>
			<polygon class="st10" points="155.5,200.2 155.5,202.4 172.7,194.4 172.7,192.2 			"/>
			<polygon class="st8" points="155.7,200.1 172.7,192.2 170,191 153,198.9 			"/>
			<g>
				<rect x="153.4" y="199.7" class="st8" width="3.4" height="20.1"/>
				<path class="st8" d="M153.4,219.7c0,0.4,0.8,0.7,1.7,0.7c0.9,0,1.7-0.3,1.7-0.7c0-0.4-0.7-0.8-1.7-0.8
					C154.2,219,153.4,219.3,153.4,219.7z"/>
				<path class="st9" d="M153.4,199.7c0,0.4,0.8,0.7,1.7,0.7c0.9,0,1.7-0.3,1.7-0.7c0-0.4-0.8-0.7-1.7-0.7
					C154.1,199,153.4,199.3,153.4,199.7z"/>
			</g>
			<g>
				<rect x="161.1" y="203.3" class="st8" width="3.4" height="20.1"/>
				<path class="st8" d="M161.1,223.3c0,0.4,0.8,0.7,1.7,0.7c0.9,0,1.7-0.3,1.7-0.7c0-0.4-0.7-0.8-1.7-0.8
					C161.8,222.6,161.1,222.9,161.1,223.3z"/>
				<path class="st9" d="M161,203.3c0,0.4,0.8,0.7,1.7,0.7c0.9,0,1.7-0.3,1.7-0.7c0-0.4-0.8-0.7-1.7-0.7
					C161.8,202.5,161,202.9,161,203.3z"/>
			</g>
			<g>
				<rect x="169.2" y="207" class="st8" width="3.4" height="20.1"/>
				<path class="st8" d="M169.2,227c0,0.4,0.8,0.7,1.7,0.7c0.9,0,1.7-0.3,1.7-0.7c0-0.4-0.7-0.8-1.7-0.8
					C169.9,226.3,169.2,226.6,169.2,227z"/>
				<ellipse class="st9" cx="170.8" cy="207" rx="1.7" ry="0.7"/>
			</g>
			<g>
				<rect x="177.3" y="210.8" class="st8" width="3.4" height="20.1"/>
				<path class="st8" d="M177.3,230.8c0,0.4,0.8,0.7,1.7,0.7s1.7-0.3,1.7-0.7c0-0.4-0.7-0.8-1.7-0.8S177.3,230.4,177.3,230.8z"/>
				<path class="st9" d="M177.2,210.8c0,0.4,0.8,0.7,1.7,0.7c0.9,0,1.7-0.3,1.7-0.7s-0.8-0.7-1.7-0.7
					C178,210.1,177.2,210.4,177.2,210.8z"/>
			</g>
			<g>
				<rect x="185.9" y="214.8" class="st8" width="3.4" height="20.1"/>
				<path class="st8" d="M185.9,234.8c0,0.4,0.8,0.7,1.7,0.7c0.9,0,1.7-0.3,1.7-0.7c0-0.4-0.7-0.8-1.7-0.8
					C186.7,234.1,185.9,234.4,185.9,234.8z"/>
				<path class="st9" d="M185.9,214.8c0,0.4,0.8,0.7,1.7,0.7c0.9,0,1.7-0.3,1.7-0.7s-0.8-0.7-1.7-0.7
					C186.6,214,185.9,214.4,185.9,214.8z"/>
			</g>
			<g>
				<rect x="204.6" y="214.8" class="st8" width="3.4" height="20.1"/>
				<path class="st8" d="M204.6,234.8c0,0.4,0.8,0.7,1.7,0.7c0.9,0,1.7-0.3,1.7-0.7c0-0.4-0.7-0.8-1.7-0.8
					C205.3,234.1,204.6,234.4,204.6,234.8z"/>
				<path class="st9" d="M204.5,214.8c0,0.4,0.8,0.7,1.7,0.7c0.9,0,1.7-0.3,1.7-0.7s-0.8-0.7-1.7-0.7
					C205.3,214,204.5,214.4,204.5,214.8z"/>
			</g>
			<g>
				<rect x="195.3" y="218.6" class="st8" width="3.4" height="20.1"/>
				<path class="st8" d="M195.3,238.6c0,0.4,0.8,0.7,1.7,0.7c0.9,0,1.7-0.3,1.7-0.7c0-0.4-0.7-0.8-1.7-0.8
					C196.1,237.9,195.3,238.2,195.3,238.6z"/>
				<path class="st9" d="M195.3,218.6c0,0.4,0.8,0.7,1.7,0.7c0.9,0,1.7-0.3,1.7-0.7c0-0.4-0.8-0.7-1.7-0.7
					C196,217.9,195.3,218.2,195.3,218.6z"/>
			</g>
			<polygon class="st4" points="197,219.3 153,198.9 153,201.1 197,221.6 			"/>
			<polygon class="st8" points="199.6,218.1 155.7,197.7 153,198.9 197,219.3 			"/>
			<polygon class="st10" points="197,219.3 197,221.6 214.1,213.6 214.1,211.4 			"/>
			<polygon class="st8" points="197,219.3 214.1,211.4 211.5,210.1 194.3,218.1 			"/>
		</g>
	</g>
	<g>
		<g>
			<g>
				<polygon class="st5" points="74,106.2 74,169 106.9,184.3 106.9,121.4 				"/>
			</g>
			<polygon class="st8" points="100.6,122.1 98.8,121.3 94.1,119.1 91.4,117.8 77.3,111.3 77.3,124.4 77.3,127.3 77.3,131.3 
				77.3,132.9 77.3,135.2 77.3,170.5 103.1,182.5 103.1,123.3 			"/>
		</g>
		<g>
			<polygon class="st5" points="48.4,173.5 48.4,176.4 96,198.6 96,195.7 			"/>
			<polygon class="st1" points="114.6,187.2 96,195.7 96,198.6 114.6,190.2 			"/>
			<polygon class="st0" points="114.6,187.2 96,195.7 48.4,173.5 67.1,165.1 			"/>
			<g>
				<rect x="60.1" y="150.5" class="st8" width="3.4" height="20.1"/>
				<path class="st8" d="M60.1,170.6c0,0.4,0.8,0.7,1.7,0.7c0.9,0,1.7-0.3,1.7-0.7c0-0.4-0.7-0.8-1.7-0.8
					C60.9,169.8,60.1,170.2,60.1,170.6z"/>
				<path class="st9" d="M60.1,150.5c0,0.4,0.8,0.7,1.7,0.7c0.9,0,1.7-0.3,1.7-0.7c0-0.4-0.8-0.7-1.7-0.7
					C60.9,149.8,60.1,150.1,60.1,150.5z"/>
			</g>
			<polygon class="st10" points="54.6,154.5 54.6,156.7 71.7,148.7 71.7,146.5 			"/>
			<polygon class="st8" points="54.8,154.4 71.7,146.5 69.1,145.3 52.1,153.2 			"/>
			<g>
				<rect x="52.5" y="154" class="st8" width="3.4" height="20.1"/>
				<path class="st8" d="M52.5,174c0,0.4,0.8,0.7,1.7,0.7c0.9,0,1.7-0.3,1.7-0.7s-0.7-0.8-1.7-0.8C53.2,173.3,52.5,173.6,52.5,174z"
					/>
				<path class="st9" d="M52.4,154c0,0.4,0.8,0.7,1.7,0.7c0.9,0,1.7-0.3,1.7-0.7s-0.8-0.7-1.7-0.7C53.2,153.3,52.4,153.6,52.4,154z"
					/>
			</g>
			<g>
				<rect x="60.1" y="157.6" class="st8" width="3.4" height="20.1"/>
				<path class="st8" d="M60.1,177.6c0,0.4,0.8,0.7,1.7,0.7c0.9,0,1.7-0.3,1.7-0.7s-0.7-0.8-1.7-0.8
					C60.9,176.9,60.1,177.2,60.1,177.6z"/>
				<path class="st9" d="M60.1,157.6c0,0.4,0.8,0.7,1.7,0.7c0.9,0,1.7-0.3,1.7-0.7c0-0.4-0.8-0.7-1.7-0.7
					C60.9,156.8,60.1,157.2,60.1,157.6z"/>
			</g>
			<g>
				<rect x="68.2" y="161.3" class="st8" width="3.4" height="20.1"/>
				<path class="st8" d="M68.2,181.3c0,0.4,0.8,0.7,1.7,0.7c0.9,0,1.7-0.3,1.7-0.7c0-0.4-0.7-0.8-1.7-0.8
					C69,180.6,68.2,180.9,68.2,181.3z"/>
				<path class="st9" d="M68.2,161.3c0,0.4,0.8,0.7,1.7,0.7c0.9,0,1.7-0.3,1.7-0.7c0-0.4-0.8-0.7-1.7-0.7
					C69,160.5,68.2,160.9,68.2,161.3z"/>
			</g>
			<g>
				<rect x="76.3" y="165.1" class="st8" width="3.4" height="20.1"/>
				<path class="st8" d="M76.3,185.1c0,0.4,0.8,0.7,1.7,0.7s1.7-0.3,1.7-0.7s-0.7-0.8-1.7-0.8S76.3,184.7,76.3,185.1z"/>
				<path class="st9" d="M76.3,165.1c0,0.4,0.8,0.7,1.7,0.7s1.7-0.3,1.7-0.7c0-0.4-0.8-0.7-1.7-0.7S76.3,164.7,76.3,165.1z"/>
			</g>
			<g>
				<rect x="85" y="169.1" class="st8" width="3.4" height="20.1"/>
				<path class="st8" d="M85,189.1c0,0.4,0.8,0.7,1.7,0.7c0.9,0,1.7-0.3,1.7-0.7c0-0.4-0.7-0.8-1.7-0.8
					C85.7,188.4,85,188.7,85,189.1z"/>
				<path class="st9" d="M84.9,169.1c0,0.4,0.8,0.7,1.7,0.7c0.9,0,1.7-0.3,1.7-0.7c0-0.4-0.8-0.7-1.7-0.7
					C85.7,168.3,84.9,168.7,84.9,169.1z"/>
			</g>
			<g>
				<rect x="103.6" y="169.1" class="st8" width="3.4" height="20.1"/>
				<path class="st8" d="M103.6,189.1c0,0.4,0.8,0.7,1.7,0.7s1.7-0.3,1.7-0.7c0-0.4-0.7-0.8-1.7-0.8S103.6,188.7,103.6,189.1z"/>
				<ellipse class="st9" cx="105.3" cy="169.1" rx="1.7" ry="0.7"/>
			</g>
			<g>
				<rect x="94.4" y="172.9" class="st8" width="3.4" height="20.1"/>
				<path class="st8" d="M94.4,192.9c0,0.4,0.8,0.7,1.7,0.7c0.9,0,1.7-0.3,1.7-0.7s-0.7-0.8-1.7-0.8
					C95.1,192.2,94.4,192.5,94.4,192.9z"/>
				<path class="st9" d="M94.3,172.9c0,0.4,0.8,0.7,1.7,0.7c0.9,0,1.7-0.3,1.7-0.7s-0.8-0.7-1.7-0.7
					C95.1,172.2,94.3,172.5,94.3,172.9z"/>
			</g>
			<polygon class="st4" points="96,173.6 52.1,153.2 52.1,155.4 96,175.9 			"/>
			<polygon class="st8" points="98.7,172.4 54.8,152 52.1,153.2 96,173.6 			"/>
			<polygon class="st10" points="96,173.6 96,175.9 113.2,167.9 113.2,165.7 			"/>
			<polygon class="st8" points="96,173.6 113.2,165.7 110.5,164.4 93.4,172.4 			"/>
		</g>
	</g>
	<g>
		<g>
			<g>
				<polygon class="st5" points="279.5,202.3 279.5,265.1 312.4,280.4 312.4,217.5 				"/>
			</g>
			<polygon class="st11" points="306.1,218.2 304.3,217.4 299.6,215.2 296.9,213.9 282.8,207.4 282.8,220.5 282.8,223.4 
				282.8,227.4 282.8,229 282.8,231.3 282.8,266.6 308.6,278.6 308.6,219.4 			"/>
		</g>
		<g>
			<polygon class="st5" points="253.9,269.6 253.9,272.5 301.5,294.7 301.5,291.8 			"/>
			<polygon class="st1" points="320.1,283.3 301.5,291.8 301.5,294.7 320.1,286.3 			"/>
			<polygon class="st0" points="320.1,283.3 301.5,291.8 253.9,269.6 272.6,261.2 			"/>
			<g>
				<rect x="265.6" y="246.6" class="st8" width="3.4" height="20.1"/>
				<path class="st8" d="M265.6,266.7c0,0.4,0.8,0.7,1.7,0.7c0.9,0,1.7-0.3,1.7-0.7c0-0.4-0.7-0.8-1.7-0.8
					C266.4,265.9,265.6,266.3,265.6,266.7z"/>
				<path class="st9" d="M265.6,246.6c0,0.4,0.8,0.7,1.7,0.7c0.9,0,1.7-0.3,1.7-0.7s-0.8-0.7-1.7-0.7
					C266.3,245.9,265.6,246.2,265.6,246.6z"/>
			</g>
			<polygon class="st10" points="260.1,250.6 260.1,252.8 277.2,244.8 277.2,242.6 			"/>
			<polygon class="st8" points="260.2,250.5 277.2,242.6 274.6,241.4 257.6,249.3 			"/>
			<g>
				<rect x="258" y="250.1" class="st8" width="3.4" height="20.1"/>
				<path class="st8" d="M258,270.1c0,0.4,0.8,0.7,1.7,0.7s1.7-0.3,1.7-0.7s-0.7-0.8-1.7-0.8S258,269.7,258,270.1z"/>
				<path class="st9" d="M257.9,250.1c0,0.4,0.8,0.7,1.7,0.7c0.9,0,1.7-0.3,1.7-0.7c0-0.4-0.8-0.7-1.7-0.7
					C258.7,249.4,257.9,249.7,257.9,250.1z"/>
			</g>
			<g>
				<rect x="265.6" y="253.7" class="st8" width="3.4" height="20.1"/>
				<path class="st8" d="M265.6,273.7c0,0.4,0.8,0.7,1.7,0.7c0.9,0,1.7-0.3,1.7-0.7c0-0.4-0.7-0.8-1.7-0.8
					C266.4,273,265.6,273.3,265.6,273.7z"/>
				<path class="st9" d="M265.6,253.7c0,0.4,0.8,0.7,1.7,0.7c0.9,0,1.7-0.3,1.7-0.7c0-0.4-0.8-0.7-1.7-0.7
					C266.3,252.9,265.6,253.3,265.6,253.7z"/>
			</g>
			<g>
				<rect x="273.7" y="257.4" class="st8" width="3.4" height="20.1"/>
				<path class="st8" d="M273.7,277.4c0,0.4,0.8,0.7,1.7,0.7c0.9,0,1.7-0.3,1.7-0.7s-0.7-0.8-1.7-0.8
					C274.5,276.7,273.7,277,273.7,277.4z"/>
				<path class="st9" d="M273.7,257.4c0,0.4,0.8,0.7,1.7,0.7c0.9,0,1.7-0.3,1.7-0.7c0-0.4-0.8-0.7-1.7-0.7
					C274.4,256.6,273.7,257,273.7,257.4z"/>
			</g>
			<g>
				<rect x="281.8" y="261.2" class="st8" width="3.4" height="20.1"/>
				<path class="st8" d="M281.8,281.2c0,0.4,0.8,0.7,1.7,0.7c0.9,0,1.7-0.3,1.7-0.7s-0.7-0.8-1.7-0.8
					C282.6,280.5,281.8,280.8,281.8,281.2z"/>
				<path class="st9" d="M281.8,261.2c0,0.4,0.8,0.7,1.7,0.7c0.9,0,1.7-0.3,1.7-0.7c0-0.4-0.8-0.7-1.7-0.7
					C282.6,260.5,281.8,260.8,281.8,261.2z"/>
			</g>
			<g>
				<rect x="290.5" y="265.2" class="st8" width="3.4" height="20.1"/>
				<path class="st8" d="M290.5,285.2c0,0.4,0.8,0.7,1.7,0.7c0.9,0,1.7-0.3,1.7-0.7s-0.7-0.8-1.7-0.8
					C291.2,284.5,290.5,284.8,290.5,285.2z"/>
				<path class="st9" d="M290.4,265.2c0,0.4,0.8,0.7,1.7,0.7c0.9,0,1.7-0.3,1.7-0.7c0-0.4-0.8-0.7-1.7-0.7
					C291.2,264.4,290.4,264.8,290.4,265.2z"/>
			</g>
			<g>
				<rect x="309.1" y="265.2" class="st8" width="3.4" height="20.1"/>
				<path class="st8" d="M309.1,285.2c0,0.4,0.8,0.7,1.7,0.7c0.9,0,1.7-0.3,1.7-0.7s-0.7-0.8-1.7-0.8
					C309.9,284.5,309.1,284.8,309.1,285.2z"/>
				<path class="st9" d="M309.1,265.2c0,0.4,0.8,0.7,1.7,0.7c0.9,0,1.7-0.3,1.7-0.7c0-0.4-0.8-0.7-1.7-0.7
					C309.9,264.4,309.1,264.8,309.1,265.2z"/>
			</g>
			<g>
				<rect x="299.9" y="269" class="st8" width="3.4" height="20.1"/>
				<path class="st8" d="M299.9,289c0,0.4,0.8,0.7,1.7,0.7c0.9,0,1.7-0.3,1.7-0.7s-0.7-0.8-1.7-0.8
					C300.6,288.3,299.9,288.6,299.9,289z"/>
				<path class="st9" d="M299.8,269c0,0.4,0.8,0.7,1.7,0.7c0.9,0,1.7-0.3,1.7-0.7c0-0.4-0.8-0.7-1.7-0.7
					C300.6,268.3,299.8,268.6,299.8,269z"/>
			</g>
			<polygon class="st4" points="301.5,269.7 257.6,249.3 257.6,251.5 301.5,272 			"/>
			<polygon class="st8" points="304.2,268.5 260.2,248.1 257.6,249.3 301.5,269.7 			"/>
			<polygon class="st10" points="301.5,269.7 301.5,272 318.7,264 318.7,261.8 			"/>
			<polygon class="st8" points="301.5,269.7 318.7,261.8 316,260.5 298.9,268.5 			"/>
		</g>
	</g>
	<g>
		<g>
			<g>
				<polygon class="st5" points="176.8,239.9 176.8,302.6 209.7,317.9 209.7,255.1 				"/>
			</g>
			<polygon class="st8" points="203.3,255.8 201.5,254.9 196.8,252.8 194.1,251.5 180.1,245 180.1,258.1 180.1,261 180.1,264.9 
				180.1,266.6 180.1,268.9 180.1,304.2 205.8,316.1 205.8,256.9 			"/>
		</g>
		<g>
			<polygon class="st5" points="151.1,307.2 151.1,310.1 198.7,332.3 198.7,329.3 			"/>
			<polygon class="st1" points="217.4,320.9 198.7,329.3 198.7,332.3 217.4,323.8 			"/>
			<polygon class="st0" points="217.4,320.9 198.7,329.3 151.1,307.2 169.8,298.7 			"/>
			<g>
				<rect x="162.9" y="284.2" class="st8" width="3.4" height="20.1"/>
				<path class="st8" d="M162.9,304.2c0,0.4,0.8,0.7,1.7,0.7c0.9,0,1.7-0.3,1.7-0.7c0-0.4-0.7-0.8-1.7-0.8
					C163.6,303.5,162.9,303.8,162.9,304.2z"/>
				<path class="st9" d="M162.8,284.2c0,0.4,0.8,0.7,1.7,0.7c0.9,0,1.7-0.3,1.7-0.7s-0.8-0.7-1.7-0.7
					C163.6,283.5,162.8,283.8,162.8,284.2z"/>
			</g>
			<polygon class="st10" points="157.4,288.1 157.4,290.4 174.5,282.4 174.5,280.2 			"/>
			<polygon class="st8" points="157.5,288.1 174.5,280.2 171.8,278.9 154.9,286.8 			"/>
			<g>
				<rect x="155.2" y="287.6" class="st8" width="3.4" height="20.1"/>
				<path class="st8" d="M155.2,307.7c0,0.4,0.8,0.7,1.7,0.7c0.9,0,1.7-0.3,1.7-0.7c0-0.4-0.7-0.8-1.7-0.8
					C156,306.9,155.2,307.3,155.2,307.7z"/>
				<path class="st9" d="M155.2,287.6c0,0.4,0.8,0.7,1.7,0.7c0.9,0,1.7-0.3,1.7-0.7c0-0.4-0.8-0.7-1.7-0.7
					C155.9,286.9,155.2,287.2,155.2,287.6z"/>
			</g>
			<g>
				<rect x="162.9" y="291.2" class="st8" width="3.4" height="20.1"/>
				<path class="st8" d="M162.9,311.2c0,0.4,0.8,0.7,1.7,0.7c0.9,0,1.7-0.3,1.7-0.7c0-0.4-0.7-0.8-1.7-0.8
					C163.6,310.5,162.9,310.8,162.9,311.2z"/>
				<path class="st9" d="M162.8,291.2c0,0.4,0.8,0.7,1.7,0.7c0.9,0,1.7-0.3,1.7-0.7c0-0.4-0.8-0.7-1.7-0.7
					C163.6,290.5,162.8,290.8,162.8,291.2z"/>
			</g>
			<g>
				<rect x="171" y="294.9" class="st8" width="3.4" height="20.1"/>
				<path class="st8" d="M171,315c0,0.4,0.8,0.7,1.7,0.7c0.9,0,1.7-0.3,1.7-0.7c0-0.4-0.7-0.8-1.7-0.8
					C171.7,314.2,171,314.6,171,315z"/>
				<ellipse class="st9" cx="172.6" cy="294.9" rx="1.7" ry="0.7"/>
			</g>
			<g>
				<rect x="179.1" y="298.8" class="st8" width="3.4" height="20.1"/>
				<path class="st8" d="M179.1,318.8c0,0.4,0.8,0.7,1.7,0.7c0.9,0,1.7-0.3,1.7-0.7c0-0.4-0.7-0.8-1.7-0.8
					C179.8,318.1,179.1,318.4,179.1,318.8z"/>
				<path class="st9" d="M179,298.8c0,0.4,0.8,0.7,1.7,0.7c0.9,0,1.7-0.3,1.7-0.7c0-0.4-0.8-0.7-1.7-0.7
					C179.8,298,179,298.4,179,298.8z"/>
			</g>
			<g>
				<rect x="187.7" y="302.7" class="st8" width="3.4" height="20.1"/>
				<path class="st8" d="M187.7,322.7c0,0.4,0.8,0.7,1.7,0.7c0.9,0,1.7-0.3,1.7-0.7c0-0.4-0.7-0.8-1.7-0.8
					C188.5,322,187.7,322.3,187.7,322.7z"/>
				<path class="st9" d="M187.7,302.7c0,0.4,0.8,0.7,1.7,0.7c0.9,0,1.7-0.3,1.7-0.7s-0.8-0.7-1.7-0.7
					C188.4,302,187.7,302.3,187.7,302.7z"/>
			</g>
			<g>
				<rect x="206.4" y="302.7" class="st8" width="3.4" height="20.1"/>
				<path class="st8" d="M206.4,322.7c0,0.4,0.8,0.7,1.7,0.7c0.9,0,1.7-0.3,1.7-0.7c0-0.4-0.7-0.8-1.7-0.8
					C207.1,322,206.4,322.3,206.4,322.7z"/>
				<path class="st9" d="M206.3,302.7c0,0.4,0.8,0.7,1.7,0.7c0.9,0,1.7-0.3,1.7-0.7s-0.8-0.7-1.7-0.7
					C207.1,302,206.3,302.3,206.3,302.7z"/>
			</g>
			<g>
				<rect x="197.1" y="306.6" class="st8" width="3.4" height="20.1"/>
				<path class="st8" d="M197.1,326.6c0,0.4,0.8,0.7,1.7,0.7c0.9,0,1.7-0.3,1.7-0.7s-0.7-0.8-1.7-0.8
					C197.9,325.9,197.1,326.2,197.1,326.6z"/>
				<path class="st9" d="M197.1,306.6c0,0.4,0.8,0.7,1.7,0.7c0.9,0,1.7-0.3,1.7-0.7c0-0.4-0.8-0.7-1.7-0.7
					C197.8,305.8,197.1,306.2,197.1,306.6z"/>
			</g>
			<polygon class="st4" points="198.8,307.3 154.9,286.8 154.9,289.1 198.8,309.5 			"/>
			<polygon class="st8" points="201.4,306.1 157.5,285.6 154.9,286.8 198.8,307.3 			"/>
			<polygon class="st10" points="198.8,307.3 198.8,309.5 215.9,301.6 215.9,299.3 			"/>
			<polygon class="st8" points="198.8,307.3 215.9,299.3 213.3,298.1 196.1,306.1 			"/>
		</g>
	</g>
	<g>
		<g>
			<g>
				<polygon class="st5" points="74,191.6 74,254.3 106.9,269.6 106.9,206.8 				"/>
			</g>
			<polygon class="st8" points="100.6,207.5 98.8,206.6 94.1,204.5 91.4,203.2 77.3,196.7 77.3,209.8 77.3,212.7 77.3,216.6 
				77.3,218.3 77.3,220.6 77.3,255.9 103.1,267.8 103.1,208.6 			"/>
		</g>
		<g>
			<polygon class="st5" points="48.4,258.9 48.4,261.8 96,284 96,281 			"/>
			<polygon class="st1" points="114.6,272.6 96,281 96,284 114.6,275.5 			"/>
			<polygon class="st0" points="114.6,272.6 96,281 48.4,258.9 67.1,250.4 			"/>
			<g>
				<rect x="60.1" y="235.9" class="st8" width="3.4" height="20.1"/>
				<path class="st8" d="M60.1,255.9c0,0.4,0.8,0.7,1.7,0.7c0.9,0,1.7-0.3,1.7-0.7c0-0.4-0.7-0.8-1.7-0.8
					C60.9,255.2,60.1,255.5,60.1,255.9z"/>
				<path class="st9" d="M60.1,235.9c0,0.4,0.8,0.7,1.7,0.7c0.9,0,1.7-0.3,1.7-0.7c0-0.4-0.8-0.7-1.7-0.7
					C60.9,235.2,60.1,235.5,60.1,235.9z"/>
			</g>
			<polygon class="st10" points="54.6,239.8 54.6,242.1 71.7,234.1 71.7,231.9 			"/>
			<polygon class="st8" points="54.8,239.8 71.7,231.9 69.1,230.6 52.1,238.5 			"/>
			<g>
				<rect x="52.5" y="239.3" class="st8" width="3.4" height="20.1"/>
				<path class="st8" d="M52.5,259.4c0,0.4,0.8,0.7,1.7,0.7c0.9,0,1.7-0.3,1.7-0.7s-0.7-0.8-1.7-0.8C53.2,258.6,52.5,259,52.5,259.4
					z"/>
				<path class="st9" d="M52.4,239.3c0,0.4,0.8,0.7,1.7,0.7c0.9,0,1.7-0.3,1.7-0.7s-0.8-0.7-1.7-0.7
					C53.2,238.6,52.4,238.9,52.4,239.3z"/>
			</g>
			<g>
				<rect x="60.1" y="242.9" class="st8" width="3.4" height="20.1"/>
				<path class="st8" d="M60.1,262.9c0,0.4,0.8,0.7,1.7,0.7c0.9,0,1.7-0.3,1.7-0.7s-0.7-0.8-1.7-0.8
					C60.9,262.2,60.1,262.5,60.1,262.9z"/>
				<path class="st9" d="M60.1,242.9c0,0.4,0.8,0.7,1.7,0.7c0.9,0,1.7-0.3,1.7-0.7c0-0.4-0.8-0.7-1.7-0.7
					C60.9,242.2,60.1,242.5,60.1,242.9z"/>
			</g>
			<g>
				<rect x="68.2" y="246.6" class="st8" width="3.4" height="20.1"/>
				<path class="st8" d="M68.2,266.7c0,0.4,0.8,0.7,1.7,0.7c0.9,0,1.7-0.3,1.7-0.7s-0.7-0.8-1.7-0.8C69,265.9,68.2,266.3,68.2,266.7
					z"/>
				<path class="st9" d="M68.2,246.6c0,0.4,0.8,0.7,1.7,0.7c0.9,0,1.7-0.3,1.7-0.7c0-0.4-0.8-0.7-1.7-0.7
					C69,245.9,68.2,246.2,68.2,246.6z"/>
			</g>
			<g>
				<rect x="76.3" y="250.5" class="st8" width="3.4" height="20.1"/>
				<path class="st8" d="M76.3,270.5c0,0.4,0.8,0.7,1.7,0.7s1.7-0.3,1.7-0.7s-0.7-0.8-1.7-0.8S76.3,270.1,76.3,270.5z"/>
				<path class="st9" d="M76.3,250.5c0,0.4,0.8,0.7,1.7,0.7s1.7-0.3,1.7-0.7c0-0.4-0.8-0.7-1.7-0.7S76.3,250.1,76.3,250.5z"/>
			</g>
			<g>
				<rect x="85" y="254.4" class="st8" width="3.4" height="20.1"/>
				<path class="st8" d="M85,274.4c0,0.4,0.8,0.7,1.7,0.7c0.9,0,1.7-0.3,1.7-0.7s-0.7-0.8-1.7-0.8C85.7,273.7,85,274,85,274.4z"/>
				<path class="st9" d="M84.9,254.4c0,0.4,0.8,0.7,1.7,0.7c0.9,0,1.7-0.3,1.7-0.7c0-0.4-0.8-0.7-1.7-0.7
					C85.7,253.7,84.9,254,84.9,254.4z"/>
			</g>
			<g>
				<rect x="103.6" y="254.4" class="st8" width="3.4" height="20.1"/>
				<path class="st8" d="M103.6,274.4c0,0.4,0.8,0.7,1.7,0.7s1.7-0.3,1.7-0.7s-0.7-0.8-1.7-0.8S103.6,274,103.6,274.4z"/>
				<ellipse class="st9" cx="105.3" cy="254.4" rx="1.7" ry="0.7"/>
			</g>
			<g>
				<rect x="94.4" y="258.3" class="st8" width="3.4" height="20.1"/>
				<path class="st8" d="M94.4,278.3c0,0.4,0.8,0.7,1.7,0.7c0.9,0,1.7-0.3,1.7-0.7s-0.7-0.8-1.7-0.8
					C95.1,277.6,94.4,277.9,94.4,278.3z"/>
				<path class="st9" d="M94.3,258.3c0,0.4,0.8,0.7,1.7,0.7c0.9,0,1.7-0.3,1.7-0.7c0-0.4-0.8-0.7-1.7-0.7
					C95.1,257.5,94.3,257.9,94.3,258.3z"/>
			</g>
			<polygon class="st4" points="96,259 52.1,238.5 52.1,240.8 96,261.2 			"/>
			<polygon class="st8" points="98.7,257.8 54.8,237.3 52.1,238.5 96,259 			"/>
			<polygon class="st10" points="96,259 96,261.2 113.2,253.3 113.2,251 			"/>
			<polygon class="st8" points="96,259 113.2,251 110.5,249.8 93.4,257.8 			"/>
		</g>
	</g>
	<g>
		<g>
			<g>
				<polygon class="st5" points="279.5,287.7 279.5,350.4 312.4,365.7 312.4,302.9 				"/>
			</g>
			<polygon class="st8" points="306.1,303.6 304.3,302.7 299.6,300.6 296.9,299.3 282.8,292.8 282.8,305.9 282.8,308.8 282.8,312.7 
				282.8,314.4 282.8,316.7 282.8,351.9 308.6,363.9 308.6,304.7 			"/>
		</g>
		<g>
			<polygon class="st5" points="253.9,355 253.9,357.9 301.5,380.1 301.5,377.1 			"/>
			<polygon class="st1" points="320.1,368.7 301.5,377.1 301.5,380.1 320.1,371.6 			"/>
			<polygon class="st0" points="320.1,368.7 301.5,377.1 253.9,355 272.6,346.5 			"/>
			<g>
				<rect x="265.6" y="332" class="st8" width="3.4" height="20.1"/>
				<path class="st8" d="M265.6,352c0,0.4,0.8,0.7,1.7,0.7c0.9,0,1.7-0.3,1.7-0.7c0-0.4-0.7-0.8-1.7-0.8
					C266.4,351.3,265.6,351.6,265.6,352z"/>
				<path class="st9" d="M265.6,332c0,0.4,0.8,0.7,1.7,0.7c0.9,0,1.7-0.3,1.7-0.7c0-0.4-0.8-0.7-1.7-0.7
					C266.3,331.3,265.6,331.6,265.6,332z"/>
			</g>
			<polygon class="st10" points="260.1,335.9 260.1,338.2 277.2,330.2 277.2,328 			"/>
			<polygon class="st8" points="260.2,335.9 277.2,328 274.6,326.7 257.6,334.6 			"/>
			<g>
				<rect x="258" y="335.4" class="st8" width="3.4" height="20.1"/>
				<path class="st8" d="M258,355.5c0,0.4,0.8,0.7,1.7,0.7s1.7-0.3,1.7-0.7c0-0.4-0.7-0.8-1.7-0.8S258,355.1,258,355.5z"/>
				<path class="st9" d="M257.9,335.4c0,0.4,0.8,0.7,1.7,0.7c0.9,0,1.7-0.3,1.7-0.7c0-0.4-0.8-0.7-1.7-0.7
					C258.7,334.7,257.9,335,257.9,335.4z"/>
			</g>
			<g>
				<rect x="265.6" y="339" class="st8" width="3.4" height="20.1"/>
				<path class="st8" d="M265.6,359c0,0.4,0.8,0.7,1.7,0.7c0.9,0,1.7-0.3,1.7-0.7c0-0.4-0.7-0.8-1.7-0.8
					C266.4,358.3,265.6,358.6,265.6,359z"/>
				<path class="st9" d="M265.6,339c0,0.4,0.8,0.7,1.7,0.7c0.9,0,1.7-0.3,1.7-0.7c0-0.4-0.8-0.7-1.7-0.7
					C266.3,338.3,265.6,338.6,265.6,339z"/>
			</g>
			<g>
				<rect x="273.7" y="342.7" class="st8" width="3.4" height="20.1"/>
				<path class="st8" d="M273.7,362.8c0,0.4,0.8,0.7,1.7,0.7c0.9,0,1.7-0.3,1.7-0.7c0-0.4-0.7-0.8-1.7-0.8
					C274.5,362,273.7,362.4,273.7,362.8z"/>
				<path class="st9" d="M273.7,342.7c0,0.4,0.8,0.7,1.7,0.7c0.9,0,1.7-0.3,1.7-0.7c0-0.4-0.8-0.7-1.7-0.7
					C274.4,342,273.7,342.3,273.7,342.7z"/>
			</g>
			<g>
				<rect x="281.8" y="346.6" class="st8" width="3.4" height="20.1"/>
				<path class="st8" d="M281.8,366.6c0,0.4,0.8,0.7,1.7,0.7c0.9,0,1.7-0.3,1.7-0.7s-0.7-0.8-1.7-0.8
					C282.6,365.9,281.8,366.2,281.8,366.6z"/>
				<path class="st9" d="M281.8,346.6c0,0.4,0.8,0.7,1.7,0.7c0.9,0,1.7-0.3,1.7-0.7c0-0.4-0.8-0.7-1.7-0.7
					C282.6,345.8,281.8,346.2,281.8,346.6z"/>
			</g>
			<g>
				<rect x="290.5" y="350.5" class="st8" width="3.4" height="20.1"/>
				<path class="st8" d="M290.5,370.5c0,0.4,0.8,0.7,1.7,0.7c0.9,0,1.7-0.3,1.7-0.7c0-0.4-0.7-0.8-1.7-0.8
					C291.2,369.8,290.5,370.1,290.5,370.5z"/>
				<path class="st9" d="M290.4,350.5c0,0.4,0.8,0.7,1.7,0.7c0.9,0,1.7-0.3,1.7-0.7c0-0.4-0.8-0.7-1.7-0.7
					C291.2,349.8,290.4,350.1,290.4,350.5z"/>
			</g>
			<g>
				<rect x="309.1" y="350.5" class="st8" width="3.4" height="20.1"/>
				<path class="st8" d="M309.1,370.5c0,0.4,0.8,0.7,1.7,0.7c0.9,0,1.7-0.3,1.7-0.7c0-0.4-0.7-0.8-1.7-0.8
					C309.9,369.8,309.1,370.1,309.1,370.5z"/>
				<path class="st9" d="M309.1,350.5c0,0.4,0.8,0.7,1.7,0.7c0.9,0,1.7-0.3,1.7-0.7c0-0.4-0.8-0.7-1.7-0.7
					C309.9,349.8,309.1,350.1,309.1,350.5z"/>
			</g>
			<g>
				<rect x="299.9" y="354.4" class="st8" width="3.4" height="20.1"/>
				<path class="st8" d="M299.9,374.4c0,0.4,0.8,0.7,1.7,0.7c0.9,0,1.7-0.3,1.7-0.7s-0.7-0.8-1.7-0.8
					C300.6,373.7,299.9,374,299.9,374.4z"/>
				<path class="st9" d="M299.8,354.4c0,0.4,0.8,0.7,1.7,0.7c0.9,0,1.7-0.3,1.7-0.7c0-0.4-0.8-0.7-1.7-0.7
					C300.6,353.6,299.8,354,299.8,354.4z"/>
			</g>
			<polygon class="st4" points="301.5,355.1 257.6,334.6 257.6,336.9 301.5,357.3 			"/>
			<polygon class="st8" points="304.2,353.9 260.2,333.4 257.6,334.6 301.5,355.1 			"/>
			<polygon class="st10" points="301.5,355.1 301.5,357.3 318.7,349.4 318.7,347.1 			"/>
			<polygon class="st8" points="301.5,355.1 318.7,347.1 316,345.9 298.9,353.9 			"/>
		</g>
	</g>
	<g>
		<polygon class="st1" points="375.9,136.9 405.1,150.7 424.7,141.8 395.3,127.9 		"/>
		<g>
			<polygon class="st0" points="405.1,143.8 403.8,143.8 403.8,148.1 405.1,148.7 			"/>
			<polygon class="st12" points="405.1,143.8 420.4,137.9 420.4,142.1 405.1,148.7 			"/>
			<polygon class="st0" points="381.5,132.9 380.2,132.9 380.2,137.2 381.5,137.9 			"/>
			<polygon class="st12" points="381.5,132.9 396.8,127 396.8,131.3 381.5,137.9 			"/>
			<g>
				<polygon class="st3" points="379,113.9 379,133.2 406.4,146 406.4,126.6 				"/>
				<polygon class="st4" points="406.4,126.6 406.4,146 421.3,139.1 421.3,119.9 				"/>
				<polygon class="st8" points="379,113.9 406.4,126.6 421.3,119.9 393.7,107 				"/>
			</g>
			<path class="st13" d="M390.2,130.3c0.1,3.9,3.2,8,6.8,9.2c3.6,1.2,6.5-1,6.4-4.9c-0.1-3.9-3.2-8-6.8-9.2
				C392.9,124.2,390,126.4,390.2,130.3z"/>
			<path class="st12" d="M392.5,131c0.1,2.5,2.1,5.2,4.5,6c2.4,0.8,4.2-0.7,4.2-3.2c-0.1-2.5-2.1-5.2-4.5-6
				C394.2,127,392.4,128.5,392.5,131z"/>
		</g>
	</g>
	<g>
		<polygon class="st1" points="336.8,154.5 366,168.3 385.7,159.5 356.2,145.5 		"/>
		<g>
			<polygon class="st0" points="366,161.4 364.7,161.4 364.7,165.7 366,166.4 			"/>
			<polygon class="st12" points="366,161.4 381.3,155.5 381.3,159.8 366,166.4 			"/>
			<polygon class="st0" points="342.4,150.5 341.1,150.5 341.1,154.8 342.4,155.5 			"/>
			<polygon class="st12" points="342.4,150.5 357.7,144.6 357.7,148.9 342.4,155.5 			"/>
			<g>
				<polygon class="st3" points="339.9,131.5 339.9,150.8 367.3,163.6 367.3,144.3 				"/>
				<polygon class="st4" points="367.3,144.3 367.3,163.6 382.3,156.8 382.3,137.5 				"/>
				<polygon class="st8" points="339.9,131.5 367.3,144.3 382.3,137.5 354.6,124.6 				"/>
			</g>
			<path class="st13" d="M351.1,147.9c0.1,3.9,3.2,8,6.8,9.2c3.6,1.2,6.5-1,6.4-4.9c-0.1-3.9-3.2-8-6.8-9.2
				C353.8,141.8,351,144,351.1,147.9z"/>
			<path class="st12" d="M353.4,148.6c0.1,2.5,2.1,5.2,4.5,6c2.4,0.8,4.2-0.7,4.2-3.2c-0.1-2.5-2.1-5.2-4.5-6
				C355.2,144.7,353.3,146.1,353.4,148.6z"/>
		</g>
	</g>
	<g>
		<polygon class="st1" points="298.6,172.6 327.8,186.4 347.5,177.5 318,163.5 		"/>
		<g>
			<polygon class="st0" points="327.8,179.4 326.5,179.4 326.5,183.7 327.8,184.4 			"/>
			<polygon class="st12" points="327.8,179.4 343.1,173.5 343.1,177.8 327.8,184.4 			"/>
			<polygon class="st0" points="304.2,168.6 302.9,168.6 302.9,172.8 304.2,173.5 			"/>
			<polygon class="st12" points="304.2,168.6 319.5,162.6 319.5,166.9 304.2,173.5 			"/>
			<g>
				<polygon class="st3" points="301.7,149.5 301.7,168.8 329.1,181.6 329.1,162.3 				"/>
				<polygon class="st4" points="329.1,162.3 329.1,181.6 344.1,174.8 344.1,155.5 				"/>
				<polygon class="st8" points="301.7,149.5 329.1,162.3 344.1,155.5 316.4,142.6 				"/>
			</g>
			<path class="st13" d="M312.9,165.9c0.1,3.9,3.2,8,6.8,9.2c3.6,1.2,6.5-1,6.4-4.9c-0.1-3.9-3.2-8-6.8-9.2
				C315.6,159.8,312.8,162,312.9,165.9z"/>
			<path class="st12" d="M315.2,166.7c0.1,2.5,2.1,5.2,4.5,6c2.4,0.8,4.2-0.7,4.2-3.2c-0.1-2.5-2.1-5.2-4.5-6
				C317,162.7,315.1,164.1,315.2,166.7z"/>
		</g>
	</g>
</g>
</svg>
