<svg width="30" height="29" viewBox="0 0 30 29" fill="none" xmlns="http://www.w3.org/2000/svg">
<path d="M22.1125 6.31946C21.8418 6.3159 21.5761 6.39001 21.349 6.53241C21.1219 6.67481 20.9436 6.87911 20.8366 7.11948C20.7296 7.35985 20.6987 7.6255 20.7479 7.88282C20.797 8.14015 20.9241 8.3776 21.1128 8.56515C21.3016 8.7527 21.5437 8.88193 21.8084 8.9365C22.0732 8.99107 22.3487 8.96852 22.6002 8.87171C22.8517 8.77491 23.0679 8.60818 23.2213 8.39263C23.3748 8.17707 23.4587 7.92236 23.4625 7.66071V7.62446C23.4592 7.27933 23.3159 6.94922 23.0635 6.70517C22.811 6.46111 22.4695 6.32261 22.1125 6.31946Z" stroke="#E4B564" stroke-width="1.33333" stroke-linecap="round" stroke-linejoin="round"/>
<path d="M25.3437 3.3229H4.65625C4.33018 3.33078 4.0202 3.46156 3.7925 3.68731C3.5648 3.91307 3.4374 4.21593 3.4375 4.53123V24.5291C3.4375 24.8496 3.5692 25.157 3.80362 25.3836C4.03804 25.6102 4.35598 25.7375 4.6875 25.7375H25.375C25.7065 25.7375 26.0245 25.6102 26.2589 25.3836C26.4933 25.157 26.625 24.8496 26.625 24.5291V4.50102C26.6209 4.34233 26.5846 4.18596 26.518 4.04085C26.4514 3.89574 26.3559 3.76474 26.2369 3.65534C26.1179 3.54593 25.9778 3.46025 25.8245 3.40321C25.6713 3.34617 25.5079 3.31888 25.3437 3.3229Z" stroke="#E4B564" stroke-width="1.33333" stroke-linecap="round" stroke-linejoin="round"/>
<path d="M15 9.49756C13.9764 9.49756 12.9759 9.79095 12.1249 10.3406C11.2739 10.8903 10.6106 11.6716 10.2189 12.5857C9.82719 13.4998 9.72471 14.5056 9.92439 15.476C10.1241 16.4464 10.6169 17.3377 11.3407 18.0374C12.0644 18.737 12.9865 19.2134 13.9904 19.4064C14.9942 19.5995 16.0347 19.5004 16.9803 19.1218C17.9259 18.7431 18.7342 18.102 19.3028 17.2793C19.8714 16.4566 20.175 15.4895 20.175 14.5001C20.175 13.1733 19.6297 11.9009 18.6592 10.9628C17.6887 10.0246 16.3724 9.49756 15 9.49756Z" stroke="#E4B564" stroke-width="1.33333" stroke-linecap="round" stroke-linejoin="round"/>
</svg>
