<svg width="20" height="20" viewBox="0 0 20 20" fill="none" xmlns="http://www.w3.org/2000/svg">
<path d="M1.66675 10.0002C1.66675 13.1428 1.66675 14.7142 2.64306 15.6905C3.61937 16.6668 5.19071 16.6668 8.33342 16.6668H11.6667C14.8094 16.6668 16.3808 16.6668 17.3571 15.6905C18.3334 14.7142 18.3334 13.1428 18.3334 10.0002C18.3334 9.212 18.3488 8.93941 18.3334 8.3335M10.8334 3.3335H8.33342C5.19071 3.3335 3.61937 3.3335 2.64306 4.3098C2.09874 4.85412 1.85789 5.5834 1.75132 6.66683" stroke="#E4B564" stroke-width="0.832" stroke-linecap="round"/>
<path d="M5 6.66675L6.38698 7.82257M13.2009 8.16598C11.6704 9.44141 10.9051 10.0792 10 10.0792C9.45892 10.0792 8.96783 9.85125 8.33333 9.39541" stroke="#E4B564" stroke-width="0.832" stroke-linecap="round"/>
<path d="M15.8335 6.66675C17.2142 6.66675 18.3335 5.54746 18.3335 4.16675C18.3335 2.78604 17.2142 1.66675 15.8335 1.66675C14.4528 1.66675 13.3335 2.78604 13.3335 4.16675C13.3335 5.54746 14.4528 6.66675 15.8335 6.66675Z" stroke="#E4B564" stroke-width="0.832"/>
</svg>
