<?xml version="1.0" encoding="utf-8"?>
<!-- Generator: Adobe Illustrator 24.1.2, SVG Export Plug-In . SVG Version: 6.00 Build 0)  -->
<svg version="1.1" id="Слой_1" xmlns="http://www.w3.org/2000/svg" xmlns:xlink="http://www.w3.org/1999/xlink" x="0px" y="0px"
	 viewBox="0 0 500 500" style="enable-background:new 0 0 500 500;" xml:space="preserve">
<style type="text/css">
	.st0{fill:#FFFFFF;}
	.st1{fill:#FCD69F;}
	.st2{fill:#E4B564;}
	.st3{fill:#F2C179;}
	.st4{fill:#FFFFFF;stroke:#E4B564;stroke-miterlimit:10;}
	.st5{fill:#5B9AC1;stroke:#E4B564;stroke-miterlimit:10;}
	.st6{fill:none;stroke:#E4B564;stroke-miterlimit:10;}
	.st7{fill:#EBC1AC;}
	.st8{fill:#D3C7BA;}
	.st9{fill:#E5DBCF;}
	.st10{fill:#F4EDE6;}
	.st11{fill:#8B5E4C;}
	.st12{fill:#B8826C;}
	.st13{fill:#C4B5A9;}
</style>
<g>
	<rect x="72.9" y="449.2" class="st0" width="2.3" height="2.3"/>
	<polygon class="st1" points="269.2,484.2 0,277.4 0,111.5 270.8,318.5 	"/>
	<g>
		<polygon class="st2" points="121.1,193.2 56.5,318.9 93,347.3 157.6,221.1 		"/>
		<polygon class="st1" points="73,155.6 8.3,281.8 27.8,297.1 92.4,170.9 		"/>
		<polygon class="st3" points="142.7,385.9 269.2,484.2 269.2,307.6 207.4,259.7 		"/>
		<polygon class="st2" points="15.1,110.4 0,139.9 0,275 8.3,281.8 73,155.6 		"/>
		<polygon class="st2" points="0.6,99.4 0,214.1 26,236.3 69.8,154.1 		"/>
	</g>
	<polygon class="st4" points="500,131.4 269.2,307.6 269.2,484.2 500,307.6 	"/>
	<g>
		<polygon class="st2" points="36.5,303.9 34.9,302.3 34.9,91.5 36.5,91.5 		"/>
		<polygon class="st2" points="76.1,334.4 74.5,332.8 74.5,117.2 76.1,117.2 		"/>
		<polygon class="st2" points="115.4,364.9 114.2,363.8 114.2,144.6 115.4,144.6 		"/>
		<polygon class="st2" points="155,395.4 153.4,394.3 153.4,170.9 155,170.9 		"/>
		<polygon class="st2" points="190.3,422.7 188.7,421.7 188.7,201.9 190.3,201.9 		"/>
		<polygon class="st2" points="229.6,453.2 228,452.2 228,229.2 229.6,229.2 		"/>
	</g>
	<g>
		<polygon class="st5" points="462.3,334.4 463.9,332.8 463.9,122 462.3,122 		"/>
		<polygon class="st5" points="422.7,364.9 424.3,363.8 424.3,148.3 422.7,148.3 		"/>
		<polygon class="st5" points="383.4,395.4 385,394.3 385,175.6 383.4,175.6 		"/>
		<polygon class="st5" points="343.8,426.4 345.4,424.8 345.4,201.4 343.8,201.4 		"/>
		<polygon class="st5" points="308.9,453.2 310.1,452.2 310.1,232.4 308.9,232.4 		"/>
		<polygon class="st5" points="269.2,484.2 270.8,482.6 270.8,259.7 269.2,259.7 		"/>
	</g>
	<polygon class="st2" points="269.2,484.2 267.6,482.6 267.6,255 269.2,255 	"/>
	<polygon class="st2" points="0,98.8 0,111.5 269.2,320.2 269.2,307.6 	"/>
	<polygon class="st2" points="0,189.8 0,195.1 269.2,403.8 269.2,398.5 	"/>
	<polygon class="st2" points="500,131.4 269.2,307.6 269.2,319.7 500,143 	"/>
	<polygon class="st6" points="0,270.2 0,291.3 269.2,500 269.2,479 	"/>
	<polygon class="st6" points="500,302.3 269.2,479 269.2,499.5 500,322.8 	"/>
	<polygon class="st2" points="500,221.9 269.2,398 269.2,402.7 500,226.1 	"/>
	<polygon class="st7" points="364.8,27.9 265.3,104.1 129.3,0 0,98.8 269.2,307.6 500,131.4 	"/>
	<polygon class="st2" points="365.2,36.8 265.7,112.5 128.9,8.4 9.1,99.4 269.2,300.7 490.1,132.5 	"/>
	<g>
		<polygon class="st8" points="94.8,115.1 77.7,128.3 77.7,115.1 94.8,102 		"/>
		<polygon class="st9" points="51.1,107.8 77.7,128.3 77.7,115.1 51.1,94.6 		"/>
		<polygon class="st10" points="68.2,81.5 51.1,94.6 77.7,115.1 94.8,102 		"/>
		<path class="st11" d="M60.3,95.7c0-3.7,4.4-6.8,9.5-6.8c5.2,0,9.5,3.2,9.5,6.8s-4.4,6.8-9.5,6.8C64.6,102.5,60.3,99.4,60.3,95.7z"
			/>
		<path class="st12" d="M63.8,95.2c0-2.1,2.8-4.2,5.9-4.2c3.2,0,5.9,2.1,5.9,4.2s-2.8,4.2-5.9,4.2C66.6,99.4,63.8,97.8,63.8,95.2z"
			/>
	</g>
	<g>
		<polygon class="st8" points="132,87.3 114.6,100.4 114.6,87.3 132,74.1 		"/>
		<polygon class="st9" points="88,79.9 114.6,100.4 114.6,87.3 88,66.8 		"/>
		<polygon class="st10" points="105.5,53.6 88,66.8 114.6,87.3 132,74.1 		"/>
		<path class="st11" d="M97.5,67.8c0-3.7,4.4-6.8,9.5-6.8c5.2,0,9.5,3.2,9.5,6.8s-4.4,6.8-9.5,6.8C101.5,74.7,97.5,71.5,97.5,67.8z"
			/>
		<ellipse class="st12" cx="106.7" cy="67.3" rx="5.9" ry="4.2"/>
	</g>
	<g>
		<polygon class="st8" points="166.1,61.5 149.1,74.7 149.1,61.5 166.1,48.4 		"/>
		<polygon class="st9" points="122.5,54.2 149.1,74.7 149.1,61.5 122.5,41 		"/>
		<polygon class="st10" points="139.6,27.9 122.5,41 149.1,61.5 166.1,48.4 		"/>
		<path class="st11" d="M131.6,42.1c0-3.7,4.4-6.8,9.5-6.8c5.2,0,9.5,3.2,9.5,6.8s-4.4,6.8-9.5,6.8C136,48.9,131.6,45.7,131.6,42.1z
			"/>
		<ellipse class="st12" cx="141.2" cy="41.5" rx="5.9" ry="4.2"/>
	</g>
	<g>
		<polygon class="st10" points="423.1,100.4 351.7,154 383.4,178.8 454.8,125.1 		"/>
		<polygon class="st13" points="454.8,136.7 383.4,190.3 383.4,178.8 454.8,124.6 		"/>
		<polygon class="st9" points="351.7,166.1 383.4,190.3 383.4,178.8 351.7,154 		"/>
	</g>
	<g>
		<polygon class="st10" points="316.4,179.3 245,232.9 276.8,257.6 348.1,203.5 		"/>
		<polygon class="st13" points="348.1,215.6 276.8,269.2 276.8,257.6 348.1,203.5 		"/>
		<polygon class="st9" points="245,245 276.8,269.2 276.8,257.6 245,232.9 		"/>
	</g>
</g>
</svg>
