<svg width="20" height="20" viewBox="0 0 20 20" fill="none" xmlns="http://www.w3.org/2000/svg">
<g clip-path="url(#clip0_144_74)">
<path d="M3.12656 5.77134C3.10806 5.42666 2.81364 5.16224 2.46896 5.18074C2.12427 5.19923 1.85986 5.49366 1.87836 5.83834L3.12656 5.77134ZM3.93143 2.57667C3.69371 2.82694 3.70389 3.22254 3.95416 3.46026C4.20444 3.69798 4.60003 3.6878 4.83776 3.43753L3.93143 2.57667ZM8.88677 16.5101C9.17901 16.6938 9.56485 16.6058 9.74852 16.3136C9.93218 16.0213 9.8441 15.6355 9.55185 15.4518L8.88677 16.5101ZM12.5942 16.7152C12.2563 16.6445 11.9251 16.8611 11.8543 17.1989C11.7836 17.5367 12.0001 17.868 12.338 17.9387L12.5942 16.7152ZM13.0372 12.953L13.4167 12.5534L12.5103 11.6926L12.1308 12.0921L13.0372 12.953ZM14.6656 12.3851L16.2577 13.3016L16.8813 12.2182L15.2892 11.3018L14.6656 12.3851ZM16.5649 15.2015L15.3812 16.4478L16.2875 17.3086L17.4713 16.0624L16.5649 15.2015ZM6.96601 13.2988C3.73591 9.89806 3.19409 7.02953 3.12656 5.77134L1.87836 5.83834C1.96106 7.37936 2.61538 10.5335 6.05969 14.1596L6.96601 13.2988ZM8.11213 7.76789L8.35118 7.51625L7.44482 6.65539L7.20581 6.90703L8.11213 7.76789ZM8.53893 4.38333L7.48809 2.89709L6.46743 3.61873L7.51826 5.10496L8.53893 4.38333ZM7.65897 7.33745C7.20581 6.90703 7.20523 6.90764 7.20465 6.90824C7.20446 6.90846 7.20387 6.90908 7.20347 6.90949C7.20268 6.91034 7.20187 6.9112 7.20106 6.91209C7.19941 6.91385 7.19771 6.91569 7.19597 6.91762C7.19247 6.92146 7.18877 6.92562 7.18487 6.9301C7.17707 6.93907 7.16851 6.94932 7.15935 6.96089C7.14103 6.98404 7.12031 7.01249 7.09857 7.04646C7.05497 7.11459 7.00769 7.20432 6.96766 7.31683C6.88623 7.54564 6.84186 7.84864 6.89731 8.22704C7.00623 8.97048 7.49336 9.97023 8.76618 11.3102L9.67252 10.4494C8.48277 9.19681 8.18972 8.42539 8.1341 8.04582C8.10727 7.86269 8.13453 7.7662 8.14531 7.7359C8.15137 7.71887 8.15534 7.71414 8.15147 7.7202C8.14958 7.72314 8.14583 7.72865 8.13953 7.73662C8.13637 7.7406 8.13258 7.7452 8.12805 7.75042C8.12578 7.75302 8.12333 7.75578 8.12068 7.75869C8.11936 7.76015 8.11798 7.76164 8.11656 7.76318C8.11585 7.76394 8.11512 7.76472 8.11438 7.7655C8.11402 7.76589 8.11345 7.76649 8.11327 7.76669C8.1127 7.76729 8.11213 7.76789 7.65897 7.33745ZM8.76618 11.3102C10.0352 12.6463 10.9937 13.1716 11.7249 13.2903C12.1001 13.3512 12.4038 13.3026 12.6338 13.2119C12.7463 13.1676 12.8353 13.1155 12.902 13.0681C12.9353 13.0445 12.963 13.0221 12.9854 13.0025C12.9966 12.9926 13.0065 12.9835 13.0151 12.9751C13.0194 12.9711 13.0233 12.9671 13.027 12.9634C13.0288 12.9616 13.0307 12.9597 13.0323 12.958C13.0332 12.9571 13.034 12.9563 13.0348 12.9555C13.0352 12.9551 13.0358 12.9544 13.036 12.9542C13.0366 12.9536 13.0372 12.953 12.584 12.5226C12.1308 12.0921 12.1314 12.0916 12.1319 12.091C12.1322 12.0907 12.1327 12.0901 12.1331 12.0897C12.1338 12.089 12.1346 12.0882 12.1353 12.0875C12.1368 12.086 12.1382 12.0845 12.1396 12.0831C12.1423 12.0803 12.145 12.0776 12.1475 12.0752C12.1526 12.0704 12.1571 12.0662 12.1611 12.0627C12.1691 12.0557 12.175 12.0512 12.1788 12.0486C12.1866 12.043 12.1858 12.0449 12.1752 12.0491C12.1591 12.0554 12.0834 12.0821 11.9253 12.0565C11.5898 12.002 10.8659 11.7059 9.67252 10.4494L8.76618 11.3102ZM7.48809 2.89709C6.64343 1.70243 4.95325 1.50088 3.93143 2.57667L4.83776 3.43753C5.27345 2.97882 6.04047 3.01485 6.46743 3.61873L7.48809 2.89709ZM15.3812 16.4478C15.1486 16.6926 14.9053 16.8238 14.6688 16.8471L14.7917 18.0911C15.4142 18.0296 15.918 17.6976 16.2875 17.3086L15.3812 16.4478ZM8.35118 7.51625C9.15743 6.66735 9.21452 5.33888 8.53893 4.38333L7.51826 5.10496C7.87005 5.60252 7.8161 6.2645 7.44482 6.65539L8.35118 7.51625ZM16.2577 13.3016C16.9418 13.6953 17.0756 14.6639 16.5649 15.2015L17.4713 16.0624C18.5588 14.9175 18.242 13.0015 16.8813 12.2182L16.2577 13.3016ZM13.4167 12.5534C13.7378 12.2152 14.2383 12.1392 14.6656 12.3851L15.2892 11.3018C14.3738 10.7749 13.2385 10.926 12.5103 11.6926L13.4167 12.5534ZM9.55185 15.4518C8.7321 14.9366 7.85959 14.2396 6.96601 13.2988L6.05969 14.1596C7.02138 15.1721 7.97416 15.9366 8.88677 16.5101L9.55185 15.4518ZM14.6688 16.8471C14.2134 16.8921 13.4927 16.9034 12.5942 16.7152L12.338 17.9387C13.3784 18.1566 14.2285 18.1467 14.7917 18.0911L14.6688 16.8471Z" fill="#E4B564"/>
<path d="M12.584 12.5226L13.0372 12.953M12.584 12.5226C13.0372 12.953 13.0366 12.9536 13.036 12.9542C13.0358 12.9544 13.0352 12.9551 13.0348 12.9555C13.034 12.9563 13.0332 12.9571 13.0323 12.958C13.0307 12.9597 13.0288 12.9616 13.027 12.9634C13.0233 12.9671 13.0194 12.9711 13.0151 12.9751C13.0065 12.9835 12.9966 12.9926 12.9854 13.0025C12.963 13.0221 12.9353 13.0445 12.902 13.0681C12.8353 13.1155 12.7463 13.1676 12.6338 13.2119C12.4038 13.3026 12.1001 13.3512 11.7249 13.2903C10.9937 13.1716 10.0352 12.6463 8.76618 11.3102M12.584 12.5226C12.1308 12.0921 12.1314 12.0916 12.1319 12.091C12.1322 12.0907 12.1327 12.0901 12.1331 12.0897C12.1338 12.089 12.1346 12.0882 12.1353 12.0875C12.1368 12.086 12.1382 12.0845 12.1396 12.0831C12.1423 12.0803 12.145 12.0776 12.1475 12.0752C12.1526 12.0704 12.1571 12.0662 12.1611 12.0627C12.1691 12.0557 12.175 12.0512 12.1788 12.0486C12.1866 12.043 12.1858 12.0449 12.1752 12.0491C12.1591 12.0554 12.0834 12.0821 11.9253 12.0565C11.5898 12.002 10.8659 11.7059 9.67252 10.4494M13.0372 12.953L13.4167 12.5534M13.0372 12.953L12.1308 12.0921L12.5103 11.6926M12.9635 12.123L12.5103 11.6926M12.5103 11.6926L13.4167 12.5534M12.5103 11.6926C13.2385 10.926 14.3738 10.7749 15.2892 11.3018M14.9774 11.8435L14.6656 12.3851M14.6656 12.3851L16.2577 13.3016M14.6656 12.3851L15.2892 11.3018M14.6656 12.3851C14.2383 12.1392 13.7378 12.2152 13.4167 12.5534M16.5695 12.7599L16.2577 13.3016M16.2577 13.3016L16.8813 12.2182M16.2577 13.3016C16.9418 13.6953 17.0756 14.6639 16.5649 15.2015M17.0181 15.6319L17.4713 16.0624M17.4713 16.0624L16.2875 17.3086M17.4713 16.0624L16.5649 15.2015M17.4713 16.0624C18.5588 14.9175 18.242 13.0015 16.8813 12.2182M15.8343 16.8782L15.3812 16.4478M15.3812 16.4478L16.5649 15.2015M15.3812 16.4478L16.2875 17.3086M15.3812 16.4478C15.1486 16.6926 14.9053 16.8238 14.6688 16.8471M14.7303 17.4691L14.7917 18.0911M14.7917 18.0911L14.6688 16.8471M14.7917 18.0911C15.4142 18.0296 15.918 17.6976 16.2875 17.3086M14.7917 18.0911C14.2285 18.1467 13.3784 18.1566 12.338 17.9387M6.51285 13.7292L6.96601 13.2988M6.96601 13.2988C3.73591 9.89806 3.19409 7.02953 3.12656 5.77134M6.96601 13.2988L6.05969 14.1596M6.96601 13.2988C7.85959 14.2396 8.7321 14.9366 9.55185 15.4518M3.12656 5.77134C3.10806 5.42666 2.81364 5.16224 2.46896 5.18074C2.12427 5.19924 1.85986 5.49366 1.87836 5.83834M3.12656 5.77134L1.87836 5.83834M1.87836 5.83834C1.96106 7.37936 2.61538 10.5335 6.05969 14.1596M7.65897 7.33745L8.11213 7.76789M7.65897 7.33745C7.20581 6.90703 7.20523 6.90764 7.20465 6.90824C7.20446 6.90846 7.20387 6.90908 7.20347 6.90949C7.20268 6.91034 7.20187 6.9112 7.20106 6.91209C7.19941 6.91385 7.19771 6.91569 7.19597 6.91762C7.19247 6.92146 7.18877 6.92562 7.18487 6.9301C7.17707 6.93907 7.16851 6.94932 7.15935 6.96089C7.14103 6.98404 7.12031 7.01249 7.09856 7.04646C7.05497 7.11459 7.00769 7.20432 6.96766 7.31684C6.88623 7.54564 6.84186 7.84864 6.89731 8.22704C7.00623 8.97048 7.49336 9.97023 8.76618 11.3102M7.65897 7.33745C8.11213 7.76789 8.1127 7.76729 8.11326 7.76669C8.11345 7.76649 8.11401 7.76589 8.11438 7.7655C8.11512 7.76472 8.11585 7.76394 8.11656 7.76318C8.11798 7.76164 8.11936 7.76015 8.12068 7.75869C8.12333 7.75578 8.12578 7.75302 8.12805 7.75042C8.13258 7.7452 8.13637 7.7406 8.13953 7.73662C8.14583 7.72865 8.14958 7.72314 8.15147 7.7202C8.15534 7.71414 8.15137 7.71887 8.14531 7.7359C8.13453 7.7662 8.10727 7.86269 8.1341 8.04582C8.18972 8.42539 8.48277 9.19681 9.67252 10.4494M8.11213 7.76789L8.35118 7.51625M8.11213 7.76789L7.20581 6.90703L7.44482 6.65539M7.89798 7.08582L8.35118 7.51625M8.35118 7.51625L7.44482 6.65539M8.35118 7.51625C9.15743 6.66735 9.21452 5.33888 8.53893 4.38333M8.02858 4.74414L8.53893 4.38333M8.53893 4.38333L7.48809 2.89709M8.53893 4.38333L7.51826 5.10496M6.97776 3.2579L6.46743 3.61873M6.46743 3.61873L7.48809 2.89709M6.46743 3.61873L7.51826 5.10496M6.46743 3.61873C6.04047 3.01485 5.27345 2.97882 4.83776 3.43753M3.93143 2.57667C3.69371 2.82694 3.70389 3.22254 3.95416 3.46026C4.20444 3.69798 4.60003 3.6878 4.83776 3.43753M3.93143 2.57667L4.83776 3.43753M3.93143 2.57667C4.95325 1.50088 6.64343 1.70243 7.48809 2.89709M9.21935 10.8798L9.67252 10.4494M9.67252 10.4494L8.76618 11.3102M8.88676 16.5101C9.17901 16.6938 9.56485 16.6058 9.74852 16.3136C9.93218 16.0213 9.8441 15.6355 9.55185 15.4518M8.88676 16.5101L9.55185 15.4518M8.88676 16.5101C7.97416 15.9366 7.02138 15.1721 6.05969 14.1596M12.5942 16.7152C12.2563 16.6445 11.9251 16.8611 11.8543 17.1989C11.7836 17.5367 12.0001 17.868 12.338 17.9387M12.5942 16.7152L12.338 17.9387M12.5942 16.7152C13.4927 16.9034 14.2134 16.8921 14.6688 16.8471M16.8813 12.2182L15.2892 11.3018M7.44482 6.65539C7.8161 6.2645 7.87005 5.60252 7.51826 5.10496" stroke="#E4B564" stroke-width="0.00064"/>
</g>
<defs>
<clipPath id="clip0_144_74">
<rect width="20" height="20" fill="white"/>
</clipPath>
</defs>
</svg>
