<?xml version="1.0" encoding="utf-8"?>
<!-- Generator: Adobe Illustrator 24.1.2, SVG Export Plug-In . SVG Version: 6.00 Build 0)  -->
<svg version="1.1" id="Слой_1" xmlns="http://www.w3.org/2000/svg" xmlns:xlink="http://www.w3.org/1999/xlink" x="0px" y="0px"
	 viewBox="0 0 500 500" style="enable-background:new 0 0 500 500;" xml:space="preserve">
<style type="text/css">
	.st0{fill:#C48D7A;}
	.st1{fill:#AA6F5B;}
	.st2{fill:#E4B564;}
	.st3{fill:#FFA4A4;}
	.st4{fill:#8B5E4C;}
	.st5{fill:#FFFFFF;}
	.st6{fill:#FFFFFF;stroke:#E4B564;stroke-miterlimit:10;}
	.st7{fill:#BCAA99;}
	.st8{fill:#C4B6A9;}
	.st9{fill:#E5DBCF;}
</style>
<g>
	<polygon class="st0" points="500,137.3 352.4,42.5 274,92.9 129.3,0 0,83.1 292.2,270.8 421.5,187.7 421.5,187.7 	"/>
	<g>
		<polygon class="st1" points="274.9,113.2 352.1,62.9 479.5,143.4 489.2,138 352.1,51.4 274.9,101.7 130.2,7.5 10.9,83.4 
			19.9,89.2 130.2,19 		"/>
		<polygon class="st2" points="479.5,143.4 352.1,62.9 274.9,113.2 130.2,19 19.9,89.2 292.7,264.2 		"/>
	</g>
	<polygon class="st3" points="500,364.5 352.4,269.7 274,320.1 129.3,227.2 0,310.3 292.2,498 421.5,414.9 421.5,414.9 	"/>
	<polygon class="st2" points="500,155.9 292.2,289.4 292.2,498 500,364.5 	"/>
	<polygon class="st2" points="0,101.7 0,310.3 292.2,498 292.2,289.4 	"/>
	<polygon class="st4" points="500,137.3 292.2,270.8 292.2,298.3 500,164.8 	"/>
	<polygon class="st1" points="0,83.1 0,110.6 292.2,298.3 292.2,270.8 	"/>
	<g>
		<polygon class="st5" points="431.7,242.2 396.3,264.9 396.3,283.9 431.7,261.2 		"/>
		<polygon class="st5" points="487.4,206.5 452.1,229.2 452.1,248.2 487.4,225.5 		"/>
		<polygon class="st5" points="431.7,275.7 396.3,298.4 396.3,317.4 431.7,294.7 		"/>
		<polygon class="st5" points="487.4,240 452.1,262.7 452.1,281.7 487.4,259 		"/>
	</g>
	<g>
		<polygon class="st5" points="431.7,317.4 396.3,340.2 396.3,359.2 431.7,336.4 		"/>
		<polygon class="st5" points="487.4,281.7 452.1,304.4 452.1,323.4 487.4,300.7 		"/>
		<polygon class="st5" points="431.7,350.9 396.3,373.7 396.3,392.7 431.7,369.9 		"/>
		<polygon class="st5" points="487.4,315.2 452.1,337.9 452.1,356.9 487.4,334.2 		"/>
	</g>
	<g>
		<polygon class="st6" points="34.7,156.2 34.7,332.4 62.9,350.5 62.9,174.4 		"/>
		<polygon class="st6" points="3.4,136.2 3.4,312.5 31.2,330.2 31.2,154 		"/>
		<polygon class="st6" points="66.4,176.6 66.4,352.7 95.1,371 95.1,195 		"/>
		<polygon class="st2" points="0,134 0,310.3 3.4,312.5 3.4,136.2 		"/>
		<polygon class="st2" points="31.2,154 31.2,330.2 34.7,332.4 34.7,156.2 		"/>
		<polygon class="st2" points="62.9,174.4 62.9,350.5 66.4,352.7 66.4,176.6 		"/>
		<g>
			<polygon class="st5" points="292.2,409.8 292.2,460.2 334.8,432.8 334.8,382.4 			"/>
			<polygon class="st5" points="376.9,405.8 376.9,355.4 338.3,380.2 338.3,430.6 			"/>
			<polygon class="st5" points="376.9,326.4 376.9,276 338.3,300.8 338.3,351.2 			"/>
			<polygon class="st5" points="292.2,330.4 292.2,380.8 334.8,353.4 334.8,303 			"/>
			<polygon class="st2" points="334.8,432.8 338.3,430.6 338.3,380.2 334.8,382.4 			"/>
			<polygon class="st2" points="338.3,300.8 334.8,303 334.8,353.4 338.3,351.2 			"/>
		</g>
		<g>
			<polygon class="st5" points="179.4,337.4 179.4,387.8 212.9,409.3 212.9,358.9 			"/>
			<polygon class="st5" points="146.8,316.4 146.8,366.8 176,385.6 176,335.2 			"/>
			<polygon class="st5" points="292.2,460.2 292.2,409.8 253.3,384.8 253.3,435.2 			"/>
			<polygon class="st5" points="216.4,361.1 216.4,411.5 249.9,433 249.9,382.6 			"/>
			<polygon class="st5" points="249.9,353.6 249.9,303.2 216.4,281.7 216.4,332.1 			"/>
			<polygon class="st5" points="292.2,380.8 292.2,330.4 253.3,305.4 253.3,355.8 			"/>
			<polygon class="st5" points="146.8,237 146.8,287.4 176,306.1 176,255.7 			"/>
			<polygon class="st5" points="212.9,329.9 212.9,279.5 179.4,258 179.4,308.4 			"/>
			<polygon class="st2" points="176,335.2 176,385.6 179.4,387.8 179.4,337.4 			"/>
			<polygon class="st2" points="179.4,258 176,255.7 176,306.1 179.4,308.4 			"/>
			<polygon class="st2" points="212.9,358.9 212.9,409.3 216.4,411.5 216.4,361.1 			"/>
			<polygon class="st2" points="216.4,332.1 216.4,281.7 212.9,279.5 212.9,329.9 			"/>
			<polygon class="st2" points="249.9,433 253.3,435.2 253.3,384.8 249.9,382.6 			"/>
			<polygon class="st2" points="253.3,355.8 253.3,305.4 249.9,303.2 249.9,353.6 			"/>
		</g>
		<polygon class="st2" points="95.1,195 95.1,371 98.5,373.2 98.5,197.2 		"/>
	</g>
	<polygon class="st2" points="97.8,239.4 0,176.6 0,180.9 97.8,243.7 	"/>
	<polygon class="st2" points="97.8,285 0,222.2 0,226.5 97.8,289.4 	"/>
	<polygon class="st2" points="97.8,326.3 0,263.5 0,267.9 97.8,330.7 	"/>
	<polygon class="st2" points="97.8,368.6 0,305.8 0,310.1 97.8,372.9 	"/>
	<polygon class="st2" points="97.8,196.8 0,134 0,138.3 97.8,201.1 	"/>
	<g>
		<polygon class="st7" points="372.1,99.8 336.5,122.6 390.2,157.5 425.7,134.6 		"/>
		<polygon class="st8" points="421.8,134 390.4,154.2 390.4,137.4 421.8,117.2 		"/>
		<polygon class="st9" points="341.7,122.8 390.4,154.2 390.4,137.4 341.7,106 		"/>
		<polygon class="st5" points="373.1,85.8 341.7,106 390.4,137.4 421.8,117.2 		"/>
		<polygon class="st8" points="417,116.9 394.1,131.7 394.1,126.2 417,111.5 		"/>
		<polygon class="st9" points="350,103.3 394.1,131.7 394.1,126.2 350,97.8 		"/>
		<polygon class="st5" points="372.8,83.1 350,97.8 394.1,126.2 417,111.5 		"/>
	</g>
	<g>
		<polygon class="st7" points="92.1,71.4 113.2,85 81.3,105.7 60.2,92.2 		"/>
		<polygon class="st8" points="108.7,85.4 81.4,103 81.4,93.5 108.7,75.9 		"/>
		<polygon class="st9" points="63.8,91.7 81.4,103 81.4,93.5 63.8,82.2 		"/>
		<polygon class="st5" points="91.1,64.6 108.7,75.9 81.4,93.5 63.8,82.2 		"/>
	</g>
	<g>
		<polygon class="st7" points="136.7,41.9 157.8,55.5 125.9,76.3 104.8,62.7 		"/>
		<polygon class="st8" points="153.3,55.9 126,73.5 126,64.1 153.3,46.5 		"/>
		<polygon class="st9" points="108.4,62.2 126,73.5 126,64.1 108.4,52.8 		"/>
		<polygon class="st5" points="135.7,35.1 153.3,46.5 126,64.1 108.4,52.8 		"/>
	</g>
</g>
</svg>
