<?xml version="1.0" encoding="utf-8"?>
<!-- Generator: Adobe Illustrator 24.1.2, SVG Export Plug-In . SVG Version: 6.00 Build 0)  -->
<svg version="1.1" id="Слой_1" xmlns="http://www.w3.org/2000/svg" xmlns:xlink="http://www.w3.org/1999/xlink" x="0px" y="0px"
	 viewBox="0 0 500 500" style="enable-background:new 0 0 500 500;" xml:space="preserve">
<style type="text/css">
	.st0{fill:#FFFFFF;stroke:#E4B564;stroke-miterlimit:10;}
	.st1{fill:#E4B564;}
	.st2{fill:#D8B382;}
	.st3{fill:#F9D39B;}
	.st4{fill:#FFFFFF;}
	.st5{fill:#FFD392;}
	.st6{fill:#E3F6FF;}
	.st7{fill:none;}
</style>
<g>
	<line class="st0" x1="131.8" y1="456.7" x2="131.8" y2="455"/>
	<line class="st0" x1="-77" y1="392.6" x2="-77" y2="395.5"/>
	<line class="st0" x1="131.8" y1="521" x2="131.8" y2="519.3"/>
	<line class="st0" x1="-95" y1="456.9" x2="-95" y2="459.8"/>
	<polygon class="st1" points="368,166 250,289.2 250,500 368,439 	"/>
	<g>
		<polygon class="st2" points="250,289.1 113,429 125,435 250,315 		"/>
		<polygon class="st1" points="95,276 0,370 58,400 179,283 		"/>
		<polygon class="st1" points="202,285 73,408 113,429 250,289 		"/>
		<polygon class="st2" points="250,409.3 178,463 250,499.9 		"/>
		<polygon class="st3" points="0,269 0,281 0,370 95,276 		"/>
		<polygon class="st1" points="250,315 125,435 180,462 250,409 		"/>
		<polygon class="st3" points="179,283 60,401 75,409 203,285 		"/>
		<polygon class="st3" points="157,281 42,392 47,394 162,281 		"/>
	</g>
	<g>
		<polygon class="st4" points="55,273 53,272 53,397 55,399 		"/>
		<polygon class="st4" points="101,277 99,276 99,421 101,422 		"/>
		<polygon class="st4" points="147,280 144,280 144,444 147,447 		"/>
		<polygon class="st4" points="193,285 190,285 190,469 193,471 		"/>
	</g>
	<g>
		<polygon class="st4" points="324,212 326,210 326,461 324,462 		"/>
		<polygon class="st4" points="277.9,200.7 280.1,199.3 280,484 278,485 		"/>
		<polygon class="st4" points="232,288 234,288 235,492 233,491 		"/>
	</g>
	<g>
		<polygon class="st1" points="214,188 0,268 99,276 246,182 		"/>
		<polygon class="st5" points="368,166 137,280 250,289 		"/>
		<polygon class="st6" points="140,200 0,268 22,270 210.3,187.7 		"/>
		<polygon class="st6" points="368,166 246,182 99,276 144,280 298.9,199.7 		"/>
	</g>
	<g>
		<polygon class="st4" points="0,312 0,314 250,386 250,380 		"/>
		<polygon class="st4" points="0,341 0,343 250,443 250,440 		"/>
	</g>
	<g>
		<polygon class="st4" points="0,284 0,286 250,323 250,320 		"/>
	</g>
	<polygon class="st1" points="372.8,166 494,242 493,375 371.8,436.4 	"/>
	<g>
		<polygon class="st4" points="414,192 411,190 410,417 413,415 		"/>
		<polygon class="st4" points="453,216 451,215 451,396 453,395 		"/>
	</g>
</g>
<path class="st7" d="M451.7,441.6"/>
<path class="st7" d="M361.7,466.6"/>
<line class="st7" x1="281.1" y1="343.2" x2="371.1" y2="318.2"/>
<line class="st7" x1="315.8" y1="346.1" x2="405.8" y2="321.1"/>
</svg>
