<?xml version="1.0" encoding="utf-8"?>
<!-- Generator: Adobe Illustrator 24.1.2, SVG Export Plug-In . SVG Version: 6.00 Build 0)  -->
<svg version="1.1" id="Слой_1" xmlns="http://www.w3.org/2000/svg" xmlns:xlink="http://www.w3.org/1999/xlink" x="0px" y="0px"
	 viewBox="0 0 500 500" style="enable-background:new 0 0 500 500;" xml:space="preserve">
<style type="text/css">
	.st0{fill:#FFFFFF;stroke:#E4B564;stroke-miterlimit:10;}
	.st1{fill:#E4B564;}
	.st2{fill:#D8B382;}
	.st3{fill:#F9D39B;}
	.st4{fill:#FFFFFF;}
	.st5{fill:#FFD392;}
	.st6{fill:#E3F6FF;}
</style>
<g>
	<line class="st0" x1="131.8" y1="456.7" x2="131.8" y2="455"/>
	<line class="st0" x1="-77" y1="392.6" x2="-77" y2="395.5"/>
	<line class="st0" x1="131.8" y1="521" x2="131.8" y2="519.3"/>
	<line class="st0" x1="-95" y1="456.9" x2="-95" y2="459.8"/>
	<polygon class="st1" points="372.4,119.5 189,238.2 189,439.9 372.4,390.1 	"/>
	<g>
		<polygon class="st2" points="189,255.1 42,399 56.6,403.1 189,273.5 		"/>
		<polygon class="st1" points="115.9,217.5 12.1,319.2 12.1,339.4 131.9,222 		"/>
		<polygon class="st2" points="12.1,188.1 12.1,243.4 55.9,200.5 		"/>
		<polygon class="st1" points="189,238.2 151.8,227.7 12.1,364.5 12.1,390.7 38.2,398 189,250.3 		"/>
		<polygon class="st2" points="189,349.3 116.9,419.9 189,439.9 		"/>
		<polygon class="st3" points="55.9,200.5 12.1,243.4 12.1,319.2 115.9,217.5 		"/>
		<polygon class="st1" points="189,273.5 56.6,403.1 116.9,419.9 189,349.3 		"/>
		<polygon class="st3" points="131.9,222 12.1,339.4 12.1,364.5 151.8,227.7 		"/>
		<polygon class="st3" points="189,250.3 38.2,398 42,399 189,255.1 		"/>
	</g>
	<g>
		<polygon class="st4" points="55.5,204 53.3,203.4 53.3,405.9 55.5,406.5 		"/>
		<polygon class="st4" points="100.8,216.9 98.7,216.3 98.7,418.5 100.8,419.1 		"/>
		<polygon class="st4" points="146.6,229.9 144.4,229.3 144.4,431.2 146.6,431.8 		"/>
		<polygon class="st4" points="192.6,242.9 190.4,242.3 189.8,443.9 192.6,444.6 		"/>
	</g>
	<g>
		<polygon class="st4" points="369.1,141.7 371.2,140.3 371.2,394.2 369.1,394.8 		"/>
		<polygon class="st4" points="323.7,171 325.9,169.6 325.9,406.6 323.7,407.2 		"/>
		<polygon class="st4" points="277.9,200.7 280.1,199.3 280.1,419 277.9,419.6 		"/>
		<polygon class="st4" points="232,230.4 234.1,229.3 234.7,431.4 232,432.1 		"/>
	</g>
	<g>
		<polygon class="st1" points="239.5,81.5 44.5,167 12.1,188.1 55.8,200.5 292.5,96.7 		"/>
		<polygon class="st1" points="352.3,113.7 115.7,217.4 131.5,221.9 368.1,118.2 		"/>
		<polygon class="st5" points="314.2,157.1 152.7,227.9 189,238.2 		"/>
		<polygon class="st6" points="292.5,96.7 55.8,200.5 115.7,217.4 352.3,113.7 		"/>
		<polygon class="st6" points="372.8,119 368.1,118.2 131.5,221.9 152.7,227.9 314.2,157.1 		"/>
		<polygon class="st6" points="195.5,69 44.5,167 239.5,81.5 		"/>
	</g>
	<g>
		<polygon class="st4" points="12.3,333.7 12.3,336.6 188.9,385.8 188.9,383.8 		"/>
		<polygon class="st4" points="12.3,375.4 12.3,378.3 188.9,427.5 188.9,425.6 		"/>
	</g>
	<g>
		<polygon class="st4" points="12.3,246.1 12.3,249 188.9,298.2 188.9,296.2 		"/>
		<polygon class="st4" points="12.3,287.9 12.3,290.8 188.9,340 188.9,338 		"/>
	</g>
	<polygon class="st1" points="372.8,119 494,195 492.8,356.4 371.8,389.4 	"/>
	<g>
		<polygon class="st4" points="413.5,157 410.6,154 411.2,381.5 413,381.5 		"/>
		<polygon class="st4" points="453.3,180 451.3,178 451.3,367.6 453,372.1 		"/>
	</g>
</g>
</svg>
