<svg width="30" height="29" viewBox="0 0 30 29" fill="none" xmlns="http://www.w3.org/2000/svg">
<path d="M25.5187 5.12329C26.2312 5.12329 26.7687 5.72746 26.4812 6.85121L22.9937 22.7408C22.75 23.8706 22.0437 24.1425 21.0687 23.6168L12.75 17.6779C12.7177 17.6555 12.6915 17.626 12.6733 17.5919C12.6552 17.5577 12.6457 17.5199 12.6457 17.4815C12.6457 17.4431 12.6552 17.4053 12.6733 17.3712C12.6915 17.337 12.7177 17.3075 12.75 17.2852L22.3562 8.89933C22.7937 8.52475 22.2625 8.3435 21.6875 8.68183L9.63124 16.0345C9.59468 16.0576 9.55317 16.0723 9.50985 16.0775C9.46653 16.0828 9.42255 16.0784 9.38125 16.0647L4.26249 14.5C3.12499 14.1797 3.12499 13.4245 4.51874 12.8868L25 5.25017C25.1624 5.17484 25.3388 5.1317 25.5187 5.12329Z" stroke="#E4B564" stroke-width="1.33333" stroke-linecap="round" stroke-linejoin="round"/>
</svg>
