<svg width="20" height="20" viewBox="0 0 20 20" fill="none" xmlns="http://www.w3.org/2000/svg">
<g clip-path="url(#clip0_144_87)">
<path d="M19.1666 9.99992C19.1666 15.0625 15.0625 19.1666 9.99992 19.1666C4.93731 19.1666 0.833252 15.0625 0.833252 9.99992C0.833252 4.93731 4.93731 0.833252 9.99992 0.833252C15.0625 0.833252 19.1666 4.93731 19.1666 9.99992ZM2.50561 9.99992C2.50561 14.1389 5.86093 17.4943 9.99992 17.4943C14.1389 17.4943 17.4943 14.1389 17.4943 9.99992C17.4943 5.86093 14.1389 2.50561 9.99992 2.50561C5.86093 2.50561 2.50561 5.86093 2.50561 9.99992Z" fill="#E4B564"/>
<path d="M9.99984 4.1665C9.53959 4.1665 9.1665 4.5396 9.1665 4.99984V10.3888C9.1665 10.3888 9.1665 10.606 9.27209 10.7694C9.34275 10.908 9.45292 11.0284 9.59767 11.112L13.4475 13.3348C13.8461 13.5648 14.3558 13.4283 14.5858 13.0297C14.8159 12.6311 14.6794 12.1214 14.2808 11.8913L10.8332 9.90084V4.99984C10.8332 4.5396 10.4601 4.1665 9.99984 4.1665Z" fill="#E4B564"/>
</g>
<defs>
<clipPath id="clip0_144_87">
<rect width="20" height="20" fill="white"/>
</clipPath>
</defs>
</svg>
