<svg width="64" height="64" viewBox="0 0 64 64" fill="none" xmlns="http://www.w3.org/2000/svg">
<path d="M10.5451 27.1093C10.7895 26.0321 10.1145 24.9607 9.03728 24.7162C7.96011 24.4718 6.88872 25.1469 6.64429 26.2241L10.5451 27.1093ZM14.6662 12.6209C13.8431 13.3575 13.7731 14.6219 14.5097 15.445C15.2464 16.268 16.5108 16.3381 17.3338 15.6014L14.6662 12.6209ZM40 38C38.8955 38 38 38.8955 38 40C38 41.1045 38.8955 42 40 42V38ZM46 49.8888C46 50.9933 46.8955 51.8888 48 51.8888C49.1045 51.8888 50 50.9933 50 49.8888H46ZM14 49.8888C14 50.9933 14.8954 51.8888 16 51.8888C17.1046 51.8888 18 50.9933 18 49.8888H14ZM29.3333 42C30.4379 42 31.3333 41.1045 31.3333 40C31.3333 38.8955 30.4379 38 29.3333 38V42ZM32 10C44.1501 10 54 19.8497 54 32H58C58 17.6406 46.3595 6 32 6V10ZM32 54C19.8497 54 10 44.1501 10 32H6C6 46.3595 17.6406 58 32 58V54ZM54 32C54 44.1501 44.1501 54 32 54V58C46.3595 58 58 46.3595 58 32H54ZM10 32C10 30.3168 10.1886 28.6803 10.5451 27.1093L6.64429 26.2241C6.22235 28.0835 6 30.0171 6 32H10ZM17.3338 15.6014C21.2274 12.1166 26.3641 10 32 10V6C25.3422 6 19.2647 8.50507 14.6662 12.6209L17.3338 15.6014ZM38 24C38 27.3136 35.3136 30 32 30V34C37.5229 34 42 29.5229 42 24H38ZM32 30C28.6864 30 26 27.3136 26 24H22C22 29.5229 26.4771 34 32 34V30ZM26 24C26 20.6863 28.6864 18 32 18V14C26.4771 14 22 18.4771 22 24H26ZM32 18C35.3136 18 38 20.6863 38 24H42C42 18.4771 37.5229 14 32 14V18ZM40 42C41.6021 42 43.0619 42.9043 44.2051 44.4928C45.3571 46.0939 46 48.1595 46 49.8888H50C50 47.2989 49.0805 44.42 47.4517 42.1563C45.8136 39.8803 43.2733 38 40 38V42ZM18 49.8888C18 48.1595 18.6429 46.0939 19.7951 44.4928C20.9382 42.9043 22.3978 42 23.9999 42L24.0001 38C20.7267 38 18.1864 39.8803 16.5484 42.1563C14.9194 44.42 14 47.2989 14 49.8888H18ZM23.9999 42H29.3333V38H24.0001L23.9999 42Z" fill="#333333"/>
</svg>
