<svg width="30" height="29" viewBox="0 0 30 29" fill="none" xmlns="http://www.w3.org/2000/svg">
<path d="M5.62505 2.71876C5.46865 2.71555 5.31317 2.74255 5.16771 2.79819C5.02226 2.85383 4.88976 2.93698 4.77799 3.04277C4.66622 3.14857 4.57743 3.27487 4.51682 3.41428C4.45621 3.55368 4.42501 3.70338 4.42505 3.8546V22.0219C4.42501 22.1731 4.45621 22.3228 4.51682 22.4622C4.57743 22.6016 4.66622 22.7279 4.77799 22.8337C4.88976 22.9395 5.02226 23.0227 5.16771 23.0783C5.31317 23.1339 5.46865 23.1609 5.62505 23.1577H6.80005V26.2813L13.2625 23.1577H24.3751C24.6867 23.1577 24.9855 23.0381 25.2059 22.825C25.4263 22.612 25.5501 22.3231 25.5501 22.0219V3.8546C25.5501 3.55335 25.4263 3.26445 25.2059 3.05144C24.9855 2.83843 24.6867 2.71876 24.3751 2.71876H5.62505ZM8.56255 6.69418H12.0625C12.2155 6.70281 12.3598 6.76542 12.4681 6.87011C12.5764 6.9748 12.6411 7.11429 12.65 7.2621C12.6303 8.03666 12.764 8.80772 13.0438 9.53376C13.1668 9.77644 13.1947 10.054 13.1223 10.315C13.0499 10.5761 12.8822 10.8029 12.65 10.9536L11.4 12.1619C11.9463 13.1913 12.6595 14.1296 13.5126 14.9411C14.3601 15.7609 15.3316 16.4515 16.3938 16.9892L17.6438 15.7808C17.7996 15.5565 18.0343 15.3943 18.3043 15.3243C18.5744 15.2543 18.8615 15.2813 19.1126 15.4002C19.8636 15.6707 20.6613 15.7999 21.4626 15.7808C21.6155 15.7895 21.7598 15.8521 21.8681 15.9568C21.9764 16.0615 22.0411 16.201 22.05 16.3488V19.7563C22.0411 19.9041 21.9764 20.0436 21.8681 20.1483C21.7598 20.2529 21.6155 20.3155 21.4626 20.3242C17.9216 20.1884 14.5638 18.767 12.0592 16.3436C9.55456 13.9202 8.08725 10.673 7.95005 7.25001C7.9619 7.10436 8.02794 6.96778 8.13596 6.86559C8.24398 6.76339 8.38665 6.7025 8.53755 6.69418H8.56255Z" stroke="#E4B564" stroke-width="1.33333" stroke-linecap="round" stroke-linejoin="round"/>
</svg>
