<svg width="30" height="29" viewBox="0 0 30 29" fill="none" xmlns="http://www.w3.org/2000/svg">
<g clip-path="url(#clip0_166_120)">
<path d="M15 1.5105C12.6658 1.51292 10.3724 2.10253 8.34535 3.22136C6.31829 4.34018 4.62734 5.94971 3.43875 7.89168C2.25016 9.83365 1.60486 12.0412 1.56628 14.2973C1.52771 16.5534 2.0972 18.7804 3.21875 20.7592L1.5625 27.4897L8.525 25.8886C10.3208 26.8409 12.318 27.3837 14.364 27.4757C16.4101 27.5676 18.4507 27.2061 20.3302 26.419C22.2096 25.6318 23.8779 24.4397 25.2078 22.9339C26.5377 21.428 27.4938 19.6482 28.0032 17.7304C28.5126 15.8127 28.5617 13.8077 28.1468 11.8688C27.7319 9.92989 26.8639 8.10832 25.6093 6.5433C24.3546 4.97827 22.7465 3.71121 20.9077 2.83895C19.0689 1.96668 17.0482 1.51229 15 1.5105ZM8.28125 7.41321H11.9438C12.1095 7.41321 12.2685 7.47686 12.3857 7.59016C12.5029 7.70347 12.5688 7.85714 12.5688 8.01737C12.5482 8.82309 12.6883 9.6251 12.9813 10.3797C13.1074 10.6323 13.1352 10.9203 13.0594 11.1911C12.9836 11.4619 12.8094 11.6972 12.5688 11.8538L11.2875 13.0622C11.8556 14.1346 12.5984 15.1117 13.4875 15.9561C14.354 16.8296 15.3607 17.562 16.4688 18.1251L17.7188 16.8865C18.3438 16.2824 18.6313 16.2824 19.2438 16.4878C20.0243 16.771 20.854 16.9064 21.6875 16.8865C21.8508 16.8939 22.0054 16.9599 22.121 17.0717C22.2366 17.1834 22.3049 17.3328 22.3125 17.4907V21.0311C22.3049 21.189 22.2366 21.3384 22.121 21.4502C22.0054 21.5619 21.8508 21.6279 21.6875 21.6353C18.011 21.4805 14.526 20.0071 11.9125 17.5028C9.31773 14.979 7.7929 11.6086 7.6375 8.05362C7.63899 7.88732 7.70672 7.72798 7.82661 7.60871C7.9465 7.48944 8.10933 7.41942 8.28125 7.41321Z" stroke="#E4B564" stroke-width="1.33333" stroke-linecap="round" stroke-linejoin="round"/>
</g>
<defs>
<clipPath id="clip0_166_120">
<rect width="30" height="29" fill="white"/>
</clipPath>
</defs>
</svg>
